<svg width="81" height="79" viewBox="0 0 81 79" fill="none" xmlns="http://www.w3.org/2000/svg">
<path d="M44.0976 0H38.7399L17.9272 25.3462C36.061 44.0982 50.0735 67.3838 70.062 62.4382V61.6139C53.9888 63.6746 34.6186 34.6192 23.697 24.728C31.2709 14.8726 35.7101 9.44446 44.0976 0Z" fill="#141414"/>
<path d="M10.7148 0.206067V49.2499H15.0422V0.206067H10.7148Z" fill="#141414"/>
<path d="M2.14144 78.8805H0V72.0866H2.23632C2.90947 72.0866 3.48549 72.2226 3.96438 72.4946C4.44327 72.7644 4.81034 73.1526 5.0656 73.659C5.32086 74.1633 5.44849 74.767 5.44849 75.4703C5.44849 76.178 5.31973 76.7873 5.06221 77.2982C4.8047 77.8068 4.42972 78.1983 3.93728 78.4725C3.44483 78.7445 2.84622 78.8805 2.14144 78.8805ZM0.840314 78.1507H2.08723C2.66099 78.1507 3.13649 78.0424 3.51373 77.8256C3.89097 77.6089 4.1722 77.3004 4.35743 76.9001C4.54266 76.4998 4.63528 76.0232 4.63528 75.4703C4.63528 74.9218 4.54379 74.4497 4.36082 74.0538C4.17785 73.6557 3.90452 73.3505 3.54084 73.1382C3.17715 72.9237 2.72424 72.8164 2.18211 72.8164H0.840314V78.1507Z" fill="#141414"/>
<path d="M8.46169 72.0866V78.8805H7.62138V72.0866H8.46169Z" fill="#141414"/>
<path d="M14.7048 73.7851C14.6642 73.4489 14.4993 73.188 14.2101 73.0022C13.921 72.8164 13.5664 72.7235 13.1462 72.7235C12.839 72.7235 12.5702 72.7722 12.3398 72.8695C12.1116 72.9668 11.9332 73.1006 11.8044 73.2709C11.6779 73.4412 11.6147 73.6347 11.6147 73.8514C11.6147 74.0328 11.6587 74.1887 11.7468 74.3192C11.8372 74.4475 11.9524 74.5547 12.0924 74.641C12.2325 74.725 12.3793 74.7947 12.5329 74.85C12.6865 74.903 12.8277 74.9462 12.9565 74.9793L13.6612 75.1651C13.8419 75.2116 14.043 75.2757 14.2644 75.3575C14.488 75.4393 14.7015 75.551 14.9048 75.6926C15.1103 75.8319 15.2797 76.011 15.413 76.23C15.5463 76.4489 15.6129 76.7176 15.6129 77.0361C15.6129 77.4032 15.5147 77.735 15.3181 78.0313C15.1239 78.3277 14.8393 78.5632 14.4643 78.7379C14.0916 78.9126 13.6386 79 13.1055 79C12.6086 79 12.1783 78.9215 11.8146 78.7644C11.4531 78.6074 11.1685 78.3885 10.9607 78.1076C10.7551 77.8267 10.6388 77.5005 10.6117 77.129H11.4791C11.5017 77.3855 11.5898 77.5978 11.7434 77.7659C11.8993 77.9318 12.0958 78.0556 12.333 78.1375C12.5724 78.2171 12.83 78.2569 13.1055 78.2569C13.4263 78.2569 13.7143 78.206 13.9696 78.1043C14.2248 78.0003 14.427 77.8566 14.5761 77.673C14.7252 77.4873 14.7997 77.2705 14.7997 77.0228C14.7997 76.7972 14.7353 76.6137 14.6066 76.4721C14.4778 76.3306 14.3084 76.2156 14.0983 76.1271C13.8883 76.0387 13.6612 75.9613 13.4173 75.8949L12.5634 75.6561C12.0213 75.5035 11.5921 75.2856 11.2758 75.0026C10.9596 74.7195 10.8015 74.349 10.8015 73.8912C10.8015 73.5109 10.9065 73.1791 11.1166 72.896C11.3289 72.6107 11.6135 72.3896 11.9704 72.2326C12.3296 72.0733 12.7306 71.9937 13.1733 71.9937C13.6206 71.9937 14.0181 72.0722 14.366 72.2292C14.7139 72.3841 14.9895 72.5964 15.1928 72.8662C15.3983 73.136 15.5068 73.4423 15.5181 73.7851H14.7048Z" fill="#141414"/>
<path d="M17.3784 72.8164V72.0866H22.5829V72.8164H20.4008V78.8805H19.5605V72.8164H17.3784Z" fill="#141414"/>
<path d="M24.6431 78.8805V72.0866H26.9879C27.53 72.0866 27.975 72.1773 28.3229 72.3586C28.6707 72.5378 28.9283 72.7844 29.0954 73.0984C29.2626 73.4124 29.3462 73.7696 29.3462 74.1699C29.3462 74.5702 29.2626 74.9252 29.0954 75.2348C28.9283 75.5444 28.6719 75.7877 28.3263 75.9646C27.9807 76.1393 27.539 76.2267 27.0014 76.2267H25.1039V75.4836H26.9743C27.3448 75.4836 27.6429 75.4305 27.8688 75.3243C28.097 75.2182 28.2619 75.0678 28.3635 74.8732C28.4674 74.6764 28.5194 74.4419 28.5194 74.1699C28.5194 73.8979 28.4674 73.6601 28.3635 73.4567C28.2596 73.2532 28.0936 73.0962 27.8654 72.9856C27.6373 72.8728 27.3357 72.8164 26.9608 72.8164H25.4834V78.8805H24.6431ZM27.9095 75.8286L29.6172 78.8805H28.6414L26.9608 75.8286H27.9095Z" fill="#141414"/>
<path d="M32.35 72.0866V78.8805H31.5097V72.0866H32.35Z" fill="#141414"/>
<path d="M34.7982 78.8805V72.0866H37.2243C37.7077 72.0866 38.1064 72.1684 38.4204 72.3321C38.7344 72.4935 38.9682 72.7114 39.1218 72.9856C39.2754 73.2576 39.3522 73.5595 39.3522 73.8912C39.3522 74.1832 39.2991 74.4242 39.1929 74.6144C39.089 74.8046 38.9512 74.955 38.7796 75.0656C38.6101 75.1762 38.426 75.258 38.2273 75.3111V75.3774C38.4396 75.3907 38.6531 75.4637 38.8677 75.5964C39.0823 75.7291 39.2618 75.9193 39.4064 76.167C39.551 76.4146 39.6233 76.7176 39.6233 77.0759C39.6233 77.4165 39.5442 77.7228 39.3861 77.9948C39.228 78.2668 38.9783 78.4825 38.6373 78.6417C38.2962 78.8009 37.8523 78.8805 37.3056 78.8805H34.7982ZM35.6386 78.1507H37.3056C37.8545 78.1507 38.2442 78.0468 38.4746 77.8389C38.7073 77.6288 38.8236 77.3745 38.8236 77.0759C38.8236 76.8459 38.7638 76.6336 38.644 76.439C38.5243 76.2421 38.3538 76.0851 38.1324 75.9679C37.911 75.8485 37.649 75.7888 37.3463 75.7888H35.6386V78.1507ZM35.6386 75.0722H37.1972C37.4502 75.0722 37.6783 75.0236 37.8816 74.9263C38.0872 74.8289 38.2499 74.6918 38.3696 74.5149C38.4916 74.338 38.5525 74.1301 38.5525 73.8912C38.5525 73.5927 38.4464 73.3395 38.234 73.1316C38.0217 72.9215 37.6851 72.8164 37.2243 72.8164H35.6386V75.0722Z" fill="#141414"/>
<path d="M46.3213 72.0866H47.1616V76.5849C47.1616 77.0494 47.0498 77.464 46.8262 77.8289C46.6048 78.1916 46.292 78.478 45.8876 78.6881C45.4833 78.896 45.0089 79 44.4645 79C43.9201 79 43.4457 78.896 43.0414 78.6881C42.637 78.478 42.323 78.1916 42.0994 77.8289C41.878 77.464 41.7674 77.0494 41.7674 76.5849V72.0866H42.6077V76.5186C42.6077 76.8503 42.6822 77.1456 42.8313 77.4043C42.9804 77.6609 43.1927 77.8632 43.4683 78.0114C43.7462 78.1574 44.0782 78.2303 44.4645 78.2303C44.8508 78.2303 45.1828 78.1574 45.4607 78.0114C45.7385 77.8632 45.9509 77.6609 46.0977 77.4043C46.2468 77.1456 46.3213 76.8503 46.3213 76.5186V72.0866Z" fill="#141414"/>
<path d="M50.4434 72.0866V78.8805H49.603V72.0866H50.4434Z" fill="#141414"/>
<path d="M55.033 78.8805H52.8916V72.0866H55.1279C55.801 72.0866 56.377 72.2226 56.8559 72.4946C57.3348 72.7644 57.7019 73.1526 57.9571 73.659C58.2124 74.1633 58.34 74.767 58.34 75.4703C58.34 76.178 58.2113 76.7873 57.9538 77.2982C57.6962 77.8068 57.3213 78.1983 56.8288 78.4725C56.3364 78.7445 55.7378 78.8805 55.033 78.8805ZM53.7319 78.1507H54.9788C55.5525 78.1507 56.028 78.0424 56.4053 77.8256C56.7825 77.6089 57.0638 77.3004 57.249 76.9001C57.4342 76.4998 57.5268 76.0232 57.5268 75.4703C57.5268 74.9218 57.4353 74.4497 57.2524 74.0538C57.0694 73.6557 56.7961 73.3505 56.4324 73.1382C56.0687 72.9237 55.6158 72.8164 55.0737 72.8164H53.7319V78.1507Z" fill="#141414"/>
<path d="M66.368 75.4836C66.368 76.2001 66.2359 76.8194 65.9716 77.3413C65.7073 77.8632 65.3447 78.2657 64.8839 78.5488C64.4231 78.8319 63.8968 78.9734 63.3049 78.9734C62.7131 78.9734 62.1868 78.8319 61.726 78.5488C61.2651 78.2657 60.9026 77.8632 60.6383 77.3413C60.374 76.8194 60.2419 76.2001 60.2419 75.4836C60.2419 74.767 60.374 74.1478 60.6383 73.6259C60.9026 73.1039 61.2651 72.7014 61.726 72.4183C62.1868 72.1353 62.7131 71.9937 63.3049 71.9937C63.8968 71.9937 64.4231 72.1353 64.8839 72.4183C65.3447 72.7014 65.7073 73.1039 65.9716 73.6259C66.2359 74.1478 66.368 74.767 66.368 75.4836ZM65.5548 75.4836C65.5548 74.8953 65.4543 74.3988 65.2532 73.9941C65.0545 73.5894 64.7845 73.2831 64.4434 73.0752C64.1046 72.8673 63.7251 72.7633 63.3049 72.7633C62.8848 72.7633 62.5042 72.8673 62.1631 73.0752C61.8242 73.2831 61.5543 73.5894 61.3532 73.9941C61.1545 74.3988 61.0551 74.8953 61.0551 75.4836C61.0551 76.0719 61.1545 76.5684 61.3532 76.9731C61.5543 77.3778 61.8242 77.6841 62.1631 77.892C62.5042 78.0999 62.8848 78.2038 63.3049 78.2038C63.7251 78.2038 64.1046 78.0999 64.4434 77.892C64.7845 77.6841 65.0545 77.3778 65.2532 76.9731C65.4543 76.5684 65.5548 76.0719 65.5548 75.4836Z" fill="#141414"/>
<path d="M68.5443 78.8805V72.0866H70.889C71.4312 72.0866 71.8762 72.1773 72.2241 72.3586C72.5719 72.5378 72.8294 72.7844 72.9966 73.0984C73.1638 73.4124 73.2473 73.7696 73.2473 74.1699C73.2473 74.5702 73.1638 74.9252 72.9966 75.2348C72.8294 75.5444 72.5731 75.7877 72.2274 75.9646C71.8818 76.1393 71.4402 76.2267 70.9026 76.2267H69.0051V75.4836H70.8755C71.2459 75.4836 71.5441 75.4305 71.77 75.3243C71.9982 75.2182 72.1631 75.0678 72.2647 74.8732C72.3686 74.6764 72.4206 74.4419 72.4206 74.1699C72.4206 73.8979 72.3686 73.6601 72.2647 73.4567C72.1608 73.2532 71.9948 73.0962 71.7666 72.9856C71.5385 72.8728 71.2369 72.8164 70.8619 72.8164H69.3846V78.8805H68.5443ZM71.8107 75.8286L73.5184 78.8805H72.5426L70.8619 75.8286H71.8107Z" fill="#141414"/>
<path d="M75.6955 78.8805H74.8146L77.3626 72.0866H78.23L80.7781 78.8805H79.8971L77.8234 73.1614H77.7692L75.6955 78.8805ZM76.0208 76.2267H79.5718V76.9565H76.0208V76.2267Z" fill="#141414"/>
</svg>
