<svg width="91" height="89" viewBox="0 0 91 89" fill="none" xmlns="http://www.w3.org/2000/svg">
<path d="M49.5564 0.109985H43.5355L20.1462 28.5939C40.525 49.6674 56.2722 75.8356 78.7351 70.2777V69.3514C60.6721 71.6672 38.9039 39.0149 26.6304 27.8992C35.1419 16.8238 40.1306 10.7236 49.5564 0.109985Z" fill="#876B51"/>
<path d="M12.041 0.341562V55.4568H16.9041V0.341562H12.041Z" fill="#876B51"/>
<path d="M2.40655 88.7558H0V81.1207H2.51317C3.26965 81.1207 3.91699 81.2736 4.45516 81.5793C4.99333 81.8825 5.40585 82.3187 5.6927 82.8878C5.97956 83.4545 6.12299 84.133 6.12299 84.9233C6.12299 85.7187 5.97829 86.4034 5.6889 86.9775C5.3995 87.5491 4.9781 87.989 4.4247 88.2972C3.87129 88.6029 3.19858 88.7558 2.40655 88.7558ZM0.944341 87.9356H2.34562C2.99041 87.9356 3.52478 87.8138 3.94872 87.5702C4.37266 87.3267 4.6887 86.98 4.89687 86.5301C5.10503 86.0803 5.20911 85.5447 5.20911 84.9233C5.20911 84.307 5.1063 83.7763 4.90067 83.3315C4.69505 82.8841 4.38789 82.5411 3.97918 82.3025C3.57047 82.0614 3.06149 81.9409 2.45224 81.9409H0.944341V87.9356Z" fill="#876B51"/>
<path d="M9.50921 81.1207V88.7558H8.56487V81.1207H9.50921Z" fill="#876B51"/>
<path d="M16.5252 83.0295C16.4796 82.6517 16.2942 82.3585 15.9693 82.1497C15.6444 81.9409 15.2458 81.8365 14.7736 81.8365C14.4284 81.8365 14.1263 81.8912 13.8674 82.0006C13.611 82.1099 13.4104 82.2603 13.2657 82.4517C13.1236 82.643 13.0525 82.8605 13.0525 83.1041C13.0525 83.3079 13.102 83.4831 13.201 83.6297C13.3026 83.7739 13.432 83.8944 13.5894 83.9913C13.7468 84.0858 13.9118 84.1641 14.0844 84.2262C14.2571 84.2858 14.4157 84.3343 14.5604 84.3716L15.3524 84.5804C15.5555 84.6326 15.7815 84.7046 16.0302 84.7966C16.2815 84.8885 16.5214 85.0141 16.7499 85.1731C16.9809 85.3297 17.1713 85.531 17.3211 85.7771C17.4709 86.0231 17.5457 86.3251 17.5457 86.683C17.5457 87.0955 17.4353 87.4683 17.2145 87.8014C16.9962 88.1344 16.6763 88.3991 16.2549 88.5955C15.836 88.7918 15.3271 88.89 14.728 88.89C14.1695 88.89 13.6859 88.8017 13.2772 88.6253C12.871 88.4488 12.5511 88.2028 12.3176 87.8871C12.0866 87.5715 11.9559 87.2049 11.9254 86.7874H12.9002C12.9256 87.0757 13.0246 87.3143 13.1972 87.5031C13.3724 87.6895 13.5932 87.8287 13.8598 87.9207C14.1289 88.0102 14.4183 88.0549 14.728 88.0549C15.0884 88.0549 15.4121 87.9977 15.6989 87.8834C15.9858 87.7666 16.213 87.605 16.3806 87.3988C16.5481 87.19 16.6319 86.9464 16.6319 86.6681C16.6319 86.4146 16.5595 86.2083 16.4148 86.0492C16.2701 85.8901 16.0797 85.7609 15.8436 85.6615C15.6076 85.5621 15.3524 85.4751 15.0783 85.4005L14.1187 85.1321C13.5094 84.9606 13.0271 84.7158 12.6717 84.3977C12.3163 84.0796 12.1386 83.6633 12.1386 83.1488C12.1386 82.7213 12.2567 82.3485 12.4928 82.0304C12.7314 81.7098 13.0512 81.4612 13.4523 81.2848C13.856 81.1058 14.3066 81.0164 14.8041 81.0164C15.3067 81.0164 15.7535 81.1046 16.1445 81.281C16.5354 81.455 16.8451 81.6936 17.0736 81.9968C17.3046 82.3 17.4264 82.6443 17.4391 83.0295H16.5252Z" fill="#876B51"/>
<path d="M19.5297 81.9409V81.1207H25.3786V81.9409H22.9263V88.7558H21.982V81.9409H19.5297Z" fill="#876B51"/>
<path d="M27.6938 88.7558V81.1207H30.3289C30.9381 81.1207 31.4382 81.2226 31.8291 81.4264C32.2201 81.6278 32.5095 81.9049 32.6973 82.2578C32.8852 82.6107 32.9791 83.0121 32.9791 83.4619C32.9791 83.9118 32.8852 84.3107 32.6973 84.6586C32.5095 85.0066 32.2213 85.28 31.8329 85.4788C31.4445 85.6752 30.9483 85.7733 30.3441 85.7733H28.2117V84.9382H30.3136C30.7299 84.9382 31.065 84.8786 31.3189 84.7593C31.5753 84.64 31.7606 84.471 31.8748 84.2523C31.9916 84.0311 32.05 83.7676 32.05 83.4619C32.05 83.1562 31.9916 82.8891 31.8748 82.6604C31.7581 82.4318 31.5715 82.2553 31.3151 82.131C31.0587 82.0043 30.7198 81.9409 30.2984 81.9409H28.6382V88.7558H27.6938ZM31.3646 85.326L33.2837 88.7558H32.1871L30.2984 85.326H31.3646Z" fill="#876B51"/>
<path d="M36.3549 81.1207V88.7558H35.4105V81.1207H36.3549Z" fill="#876B51"/>
<path d="M39.1061 88.7558V81.1207H41.8325C42.3758 81.1207 42.8238 81.2127 43.1767 81.3966C43.5295 81.578 43.7923 81.8229 43.9649 82.131C44.1375 82.4367 44.2238 82.776 44.2238 83.1488C44.2238 83.4769 44.1642 83.7478 44.0449 83.9615C43.9281 84.1752 43.7733 84.3442 43.5803 84.4685C43.3899 84.5928 43.183 84.6847 42.9596 84.7444V84.819C43.1983 84.8339 43.4382 84.9159 43.6793 85.065C43.9205 85.2141 44.1223 85.4279 44.2848 85.7062C44.4472 85.9846 44.5285 86.3251 44.5285 86.7277C44.5285 87.1105 44.4396 87.4547 44.2619 87.7604C44.0842 88.0661 43.8037 88.3084 43.4204 88.4873C43.0371 88.6663 42.5382 88.7558 41.9239 88.7558H39.1061ZM40.0505 87.9356H41.9239C42.5408 87.9356 42.9787 87.8188 43.2376 87.5852C43.4991 87.349 43.6298 87.0632 43.6298 86.7277C43.6298 86.4692 43.5625 86.2306 43.428 86.0119C43.2935 85.7907 43.1018 85.6143 42.853 85.4825C42.6042 85.3483 42.3098 85.2812 41.9696 85.2812H40.0505V87.9356ZM40.0505 84.476H41.8021C42.0864 84.476 42.3428 84.4213 42.5712 84.3119C42.8023 84.2026 42.985 84.0485 43.1196 83.8497C43.2567 83.6508 43.3252 83.4172 43.3252 83.1488C43.3252 82.8133 43.2059 82.5287 42.9673 82.2951C42.7286 82.059 42.3504 81.9409 41.8325 81.9409H40.0505V84.476Z" fill="#876B51"/>
<path d="M52.0557 81.1207H53.0001V86.176C53.0001 86.6979 52.8744 87.1639 52.6231 87.574C52.3743 87.9816 52.0227 88.3034 51.5683 88.5395C51.1139 88.7732 50.5808 88.89 49.969 88.89C49.3572 88.89 48.8241 88.7732 48.3697 88.5395C47.9153 88.3034 47.5625 87.9816 47.3112 87.574C47.0624 87.1639 46.938 86.6979 46.938 86.176V81.1207H47.8823V86.1014C47.8823 86.4742 47.9661 86.806 48.1336 87.0968C48.3012 87.3851 48.5398 87.6125 48.8495 87.779C49.1618 87.943 49.5349 88.0251 49.969 88.0251C50.4031 88.0251 50.7763 87.943 51.0885 87.779C51.4008 87.6125 51.6394 87.3851 51.8044 87.0968C51.9719 86.806 52.0557 86.4742 52.0557 86.1014V81.1207Z" fill="#876B51"/>
<path d="M56.688 81.1207V88.7558H55.7437V81.1207H56.688Z" fill="#876B51"/>
<path d="M61.8459 88.7558H59.4393V81.1207H61.9525C62.709 81.1207 63.3563 81.2736 63.8945 81.5793C64.4326 81.8825 64.8452 82.3187 65.132 82.8878C65.4189 83.4545 65.5623 84.133 65.5623 84.9233C65.5623 85.7187 65.4176 86.4034 65.1282 86.9775C64.8388 87.5491 64.4174 87.989 63.864 88.2972C63.3106 88.6029 62.6379 88.7558 61.8459 88.7558ZM60.3837 87.9356H61.7849C62.4297 87.9356 62.9641 87.8138 63.388 87.5702C63.812 87.3267 64.128 86.98 64.3362 86.5301C64.5443 86.0803 64.6484 85.5447 64.6484 84.9233C64.6484 84.307 64.5456 83.7763 64.34 83.3315C64.1344 82.8841 63.8272 82.5411 63.4185 82.3025C63.0098 82.0614 62.5008 81.9409 61.8916 81.9409H60.3837V87.9356Z" fill="#876B51"/>
<path d="M74.5841 84.9382C74.5841 85.7435 74.4356 86.4394 74.1386 87.0259C73.8416 87.6125 73.4342 88.0648 72.9163 88.383C72.3984 88.7011 71.8069 88.8601 71.1418 88.8601C70.4767 88.8601 69.8852 88.7011 69.3674 88.383C68.8495 88.0648 68.4421 87.6125 68.1451 87.0259C67.8481 86.4394 67.6996 85.7435 67.6996 84.9382C67.6996 84.133 67.8481 83.4371 68.1451 82.8506C68.4421 82.264 68.8495 81.8117 69.3674 81.4935C69.8852 81.1754 70.4767 81.0164 71.1418 81.0164C71.8069 81.0164 72.3984 81.1754 72.9163 81.4935C73.4342 81.8117 73.8416 82.264 74.1386 82.8506C74.4356 83.4371 74.5841 84.133 74.5841 84.9382ZM73.6702 84.9382C73.6702 84.2771 73.5573 83.7192 73.3313 83.2644C73.1079 82.8095 72.8046 82.4653 72.4213 82.2317C72.0405 81.9981 71.614 81.8813 71.1418 81.8813C70.6697 81.8813 70.2419 81.9981 69.8586 82.2317C69.4778 82.4653 69.1745 82.8095 68.9485 83.2644C68.7251 83.7192 68.6134 84.2771 68.6134 84.9382C68.6134 85.5994 68.7251 86.1573 68.9485 86.6121C69.1745 87.067 69.4778 87.4112 69.8586 87.6448C70.2419 87.8784 70.6697 87.9952 71.1418 87.9952C71.614 87.9952 72.0405 87.8784 72.4213 87.6448C72.8046 87.4112 73.1079 87.067 73.3313 86.6121C73.5573 86.1573 73.6702 85.5994 73.6702 84.9382Z" fill="#876B51"/>
<path d="M77.0298 88.7558V81.1207H79.6648C80.2741 81.1207 80.7742 81.2226 81.1651 81.4264C81.556 81.6278 81.8454 81.9049 82.0333 82.2578C82.2211 82.6107 82.3151 83.0121 82.3151 83.4619C82.3151 83.9118 82.2211 84.3107 82.0333 84.6586C81.8454 85.0066 81.5573 85.28 81.1689 85.4788C80.7805 85.6752 80.2842 85.7733 79.6801 85.7733H77.5477V84.9382H79.6496C80.0659 84.9382 80.401 84.8786 80.6549 84.7593C80.9112 84.64 81.0966 84.471 81.2108 84.2523C81.3276 84.0311 81.386 83.7676 81.386 83.4619C81.386 83.1562 81.3276 82.8891 81.2108 82.6604C81.094 82.4318 80.9074 82.2553 80.651 82.131C80.3947 82.0043 80.0558 81.9409 79.6344 81.9409H77.9741V88.7558H77.0298ZM80.7005 85.326L82.6197 88.7558H81.523L79.6344 85.326H80.7005Z" fill="#876B51"/>
<path d="M85.0663 88.7558H84.0763L86.9398 81.1207H87.9146L90.7781 88.7558H89.788L87.4576 82.3286H87.3967L85.0663 88.7558ZM85.4319 85.7733H89.4225V86.5935H85.4319V85.7733Z" fill="#876B51"/>
</svg>
