<svg width="673" height="672" viewBox="0 0 673 672" fill="none" xmlns="http://www.w3.org/2000/svg">
<ellipse opacity="0.1" cx="335.036" cy="336.238" rx="181" ry="180.5" transform="rotate(-12.542 335.036 336.238)" fill="#C2B8A6"/>
<ellipse opacity="0.1" cx="335.035" cy="336.237" rx="129" ry="128.5" transform="rotate(-12.542 335.035 336.237)" fill="#C2B8A6"/>
<circle cx="336.5" cy="335.912" r="224" transform="rotate(-12.542 336.5 335.912)" stroke="#C2B8A6"/>
<path d="M215.312 95.4329C212.277 89.4105 204.919 86.9654 199.034 90.2586C146.874 119.445 105.349 164.491 80.4942 218.849C77.6899 224.983 80.7244 232.118 86.9734 234.654C93.2225 237.189 100.317 234.164 103.147 228.043C125.746 179.152 163.142 138.584 210.036 112.09C215.908 108.773 218.347 101.455 215.312 95.4329Z" fill="url(#paint0_linear_265_749)"/>
<path d="M488.532 558.179C492.34 563.745 499.957 565.192 505.353 561.147C553.178 525.296 588.357 475.137 605.777 417.961C607.743 411.51 603.788 404.841 597.258 403.157C590.727 401.472 584.097 405.412 582.105 411.855C566.195 463.313 534.513 508.485 491.55 540.969C486.171 545.036 484.725 552.612 488.532 558.179Z" fill="url(#paint1_linear_265_749)"/>
<g filter="url(#filter0_d_265_749)">
<rect x="97" y="196" width="200" height="205" rx="20" fill="white" shape-rendering="crispEdges"/>
<rect x="97.5" y="196.5" width="199" height="204" rx="19.5" stroke="#F4F4F4" shape-rendering="crispEdges"/>
<rect width="88" height="3" rx="1.5" transform="matrix(-1 0 0 1 205 216)" fill="url(#paint2_linear_265_749)"/>
<rect x="117" y="250" width="56" height="56" rx="28" fill="url(#paint3_linear_265_749)"/>
<path d="M154.376 279.875C154.378 280.257 154.262 280.631 154.043 280.944C153.825 281.258 153.514 281.496 153.155 281.626L147.102 283.852L144.875 289.9C144.744 290.259 144.505 290.568 144.192 290.786C143.879 291.004 143.506 291.122 143.125 291.122C142.743 291.122 142.37 291.004 142.057 290.786C141.744 290.568 141.506 290.259 141.374 289.9L139.141 283.859L133.092 281.633C132.734 281.501 132.425 281.262 132.207 280.949C131.988 280.636 131.871 280.264 131.871 279.882C131.871 279.5 131.988 279.128 132.207 278.815C132.425 278.502 132.734 278.263 133.092 278.131L139.145 275.905L141.372 269.857C141.503 269.498 141.742 269.189 142.055 268.971C142.368 268.753 142.741 268.635 143.122 268.635C143.504 268.635 143.877 268.753 144.19 268.971C144.503 269.189 144.741 269.498 144.873 269.857L147.1 275.909L153.148 278.136C153.507 278.264 153.817 278.5 154.037 278.811C154.257 279.122 154.375 279.494 154.376 279.875ZM147.813 268.625H149.688V270.5C149.688 270.749 149.787 270.987 149.963 271.163C150.139 271.339 150.377 271.438 150.626 271.438C150.874 271.438 151.113 271.339 151.289 271.163C151.465 270.987 151.563 270.749 151.563 270.5V268.625H153.438C153.687 268.625 153.925 268.526 154.101 268.35C154.277 268.175 154.376 267.936 154.376 267.688C154.376 267.439 154.277 267.2 154.101 267.025C153.925 266.849 153.687 266.75 153.438 266.75H151.563V264.875C151.563 264.626 151.465 264.388 151.289 264.212C151.113 264.036 150.874 263.938 150.626 263.938C150.377 263.938 150.139 264.036 149.963 264.212C149.787 264.388 149.688 264.626 149.688 264.875V266.75H147.813C147.565 266.75 147.326 266.849 147.15 267.025C146.975 267.2 146.876 267.439 146.876 267.688C146.876 267.936 146.975 268.175 147.15 268.35C147.326 268.526 147.565 268.625 147.813 268.625ZM158.126 272.375H157.188V271.438C157.188 271.189 157.09 270.95 156.914 270.775C156.738 270.599 156.5 270.5 156.251 270.5C156.002 270.5 155.764 270.599 155.588 270.775C155.412 270.95 155.313 271.189 155.313 271.438V272.375H154.376C154.127 272.375 153.889 272.474 153.713 272.65C153.537 272.825 153.438 273.064 153.438 273.312C153.438 273.561 153.537 273.8 153.713 273.975C153.889 274.151 154.127 274.25 154.376 274.25H155.313V275.188C155.313 275.436 155.412 275.675 155.588 275.85C155.764 276.026 156.002 276.125 156.251 276.125C156.5 276.125 156.738 276.026 156.914 275.85C157.09 275.675 157.188 275.436 157.188 275.188V274.25H158.126C158.375 274.25 158.613 274.151 158.789 273.975C158.965 273.8 159.063 273.561 159.063 273.312C159.063 273.064 158.965 272.825 158.789 272.65C158.613 272.474 158.375 272.375 158.126 272.375Z" fill="white"/>
<path d="M124.524 354.216C123.552 354.216 122.646 354.06 121.806 353.748C120.978 353.424 120.258 352.968 119.646 352.38C119.034 351.792 118.554 351.102 118.206 350.31C117.87 349.518 117.702 348.648 117.702 347.7C117.702 346.752 117.87 345.882 118.206 345.09C118.554 344.298 119.034 343.608 119.646 343.02C120.27 342.432 120.996 341.982 121.824 341.67C122.652 341.346 123.558 341.184 124.542 341.184C125.634 341.184 126.618 341.376 127.494 341.76C128.382 342.132 129.126 342.684 129.726 343.416L127.854 345.144C127.422 344.652 126.942 344.286 126.414 344.046C125.886 343.794 125.31 343.668 124.686 343.668C124.098 343.668 123.558 343.764 123.066 343.956C122.574 344.148 122.148 344.424 121.788 344.784C121.428 345.144 121.146 345.57 120.942 346.062C120.75 346.554 120.654 347.1 120.654 347.7C120.654 348.3 120.75 348.846 120.942 349.338C121.146 349.83 121.428 350.256 121.788 350.616C122.148 350.976 122.574 351.252 123.066 351.444C123.558 351.636 124.098 351.732 124.686 351.732C125.31 351.732 125.886 351.612 126.414 351.372C126.942 351.12 127.422 350.742 127.854 350.238L129.726 351.966C129.126 352.698 128.382 353.256 127.494 353.64C126.618 354.024 125.628 354.216 124.524 354.216ZM135.771 354.144C134.739 354.144 133.821 353.928 133.017 353.496C132.225 353.064 131.595 352.476 131.127 351.732C130.671 350.976 130.443 350.118 130.443 349.158C130.443 348.186 130.671 347.328 131.127 346.584C131.595 345.828 132.225 345.24 133.017 344.82C133.821 344.388 134.739 344.172 135.771 344.172C136.791 344.172 137.703 344.388 138.507 344.82C139.311 345.24 139.941 345.822 140.397 346.566C140.853 347.31 141.081 348.174 141.081 349.158C141.081 350.118 140.853 350.976 140.397 351.732C139.941 352.476 139.311 353.064 138.507 353.496C137.703 353.928 136.791 354.144 135.771 354.144ZM135.771 351.84C136.239 351.84 136.659 351.732 137.031 351.516C137.403 351.3 137.697 350.994 137.913 350.598C138.129 350.19 138.237 349.71 138.237 349.158C138.237 348.594 138.129 348.114 137.913 347.718C137.697 347.322 137.403 347.016 137.031 346.8C136.659 346.584 136.239 346.476 135.771 346.476C135.303 346.476 134.883 346.584 134.511 346.8C134.139 347.016 133.839 347.322 133.611 347.718C133.395 348.114 133.287 348.594 133.287 349.158C133.287 349.71 133.395 350.19 133.611 350.598C133.839 350.994 134.139 351.3 134.511 351.516C134.883 351.732 135.303 351.84 135.771 351.84ZM148.844 344.172C149.612 344.172 150.296 344.328 150.896 344.64C151.508 344.94 151.988 345.408 152.336 346.044C152.684 346.668 152.858 347.472 152.858 348.456V354H150.05V348.888C150.05 348.108 149.876 347.532 149.528 347.16C149.192 346.788 148.712 346.602 148.088 346.602C147.644 346.602 147.242 346.698 146.882 346.89C146.534 347.07 146.258 347.352 146.054 347.736C145.862 348.12 145.766 348.612 145.766 349.212V354H142.958V344.316H145.64V346.998L145.136 346.188C145.484 345.54 145.982 345.042 146.63 344.694C147.278 344.346 148.016 344.172 148.844 344.172ZM159.632 354.144C158.72 354.144 157.898 353.94 157.166 353.532C156.434 353.112 155.852 352.53 155.42 351.786C155 351.042 154.79 350.166 154.79 349.158C154.79 348.138 155 347.256 155.42 346.512C155.852 345.768 156.434 345.192 157.166 344.784C157.898 344.376 158.72 344.172 159.632 344.172C160.448 344.172 161.162 344.352 161.774 344.712C162.386 345.072 162.86 345.618 163.196 346.35C163.532 347.082 163.7 348.018 163.7 349.158C163.7 350.286 163.538 351.222 163.214 351.966C162.89 352.698 162.422 353.244 161.81 353.604C161.21 353.964 160.484 354.144 159.632 354.144ZM160.118 351.84C160.574 351.84 160.988 351.732 161.36 351.516C161.732 351.3 162.026 350.994 162.242 350.598C162.47 350.19 162.584 349.71 162.584 349.158C162.584 348.594 162.47 348.114 162.242 347.718C162.026 347.322 161.732 347.016 161.36 346.8C160.988 346.584 160.574 346.476 160.118 346.476C159.65 346.476 159.23 346.584 158.858 346.8C158.486 347.016 158.186 347.322 157.958 347.718C157.742 348.114 157.634 348.594 157.634 349.158C157.634 349.71 157.742 350.19 157.958 350.598C158.186 350.994 158.486 351.3 158.858 351.516C159.23 351.732 159.65 351.84 160.118 351.84ZM162.656 354V352.02L162.71 349.14L162.53 346.278V340.644H165.338V354H162.656ZM167.937 354V344.316H170.745V354H167.937ZM169.341 342.966C168.825 342.966 168.405 342.816 168.081 342.516C167.757 342.216 167.595 341.844 167.595 341.4C167.595 340.956 167.757 340.584 168.081 340.284C168.405 339.984 168.825 339.834 169.341 339.834C169.857 339.834 170.277 339.978 170.601 340.266C170.925 340.542 171.087 340.902 171.087 341.346C171.087 341.814 170.925 342.204 170.601 342.516C170.289 342.816 169.869 342.966 169.341 342.966ZM178.031 354.144C176.987 354.144 176.057 353.934 175.241 353.514C174.425 353.082 173.783 352.488 173.315 351.732C172.859 350.976 172.631 350.118 172.631 349.158C172.631 348.186 172.859 347.328 173.315 346.584C173.783 345.828 174.425 345.24 175.241 344.82C176.057 344.388 176.987 344.172 178.031 344.172C179.051 344.172 179.939 344.388 180.695 344.82C181.451 345.24 182.009 345.846 182.369 346.638L180.191 347.808C179.939 347.352 179.621 347.016 179.237 346.8C178.865 346.584 178.457 346.476 178.013 346.476C177.533 346.476 177.101 346.584 176.717 346.8C176.333 347.016 176.027 347.322 175.799 347.718C175.583 348.114 175.475 348.594 175.475 349.158C175.475 349.722 175.583 350.202 175.799 350.598C176.027 350.994 176.333 351.3 176.717 351.516C177.101 351.732 177.533 351.84 178.013 351.84C178.457 351.84 178.865 351.738 179.237 351.534C179.621 351.318 179.939 350.976 180.191 350.508L182.369 351.696C182.009 352.476 181.451 353.082 180.695 353.514C179.939 353.934 179.051 354.144 178.031 354.144ZM177.005 358.176C176.693 358.176 176.387 358.14 176.087 358.068C175.799 357.996 175.547 357.906 175.331 357.798L175.763 356.592C175.943 356.676 176.129 356.742 176.321 356.79C176.513 356.838 176.717 356.862 176.933 356.862C177.269 356.862 177.509 356.808 177.653 356.7C177.797 356.592 177.869 356.454 177.869 356.286C177.869 356.13 177.797 356.004 177.653 355.908C177.521 355.812 177.299 355.764 176.987 355.764H176.375L176.843 353.856H178.337L178.085 354.9C178.625 354.96 179.021 355.128 179.273 355.404C179.525 355.692 179.651 356.022 179.651 356.394C179.651 356.934 179.411 357.366 178.931 357.69C178.451 358.014 177.809 358.176 177.005 358.176ZM188.47 354.144C187.438 354.144 186.52 353.928 185.716 353.496C184.924 353.064 184.294 352.476 183.826 351.732C183.37 350.976 183.142 350.118 183.142 349.158C183.142 348.186 183.37 347.328 183.826 346.584C184.294 345.828 184.924 345.24 185.716 344.82C186.52 344.388 187.438 344.172 188.47 344.172C189.49 344.172 190.402 344.388 191.206 344.82C192.01 345.24 192.64 345.822 193.096 346.566C193.552 347.31 193.78 348.174 193.78 349.158C193.78 350.118 193.552 350.976 193.096 351.732C192.64 352.476 192.01 353.064 191.206 353.496C190.402 353.928 189.49 354.144 188.47 354.144ZM188.47 351.84C188.938 351.84 189.358 351.732 189.73 351.516C190.102 351.3 190.396 350.994 190.612 350.598C190.828 350.19 190.936 349.71 190.936 349.158C190.936 348.594 190.828 348.114 190.612 347.718C190.396 347.322 190.102 347.016 189.73 346.8C189.358 346.584 188.938 346.476 188.47 346.476C188.002 346.476 187.582 346.584 187.21 346.8C186.838 347.016 186.538 347.322 186.31 347.718C186.094 348.114 185.986 348.594 185.986 349.158C185.986 349.71 186.094 350.19 186.31 350.598C186.538 350.994 186.838 351.3 187.21 351.516C187.582 351.732 188.002 351.84 188.47 351.84ZM189.784 343.128C189.472 343.128 189.196 343.074 188.956 342.966C188.716 342.846 188.5 342.714 188.308 342.57C188.116 342.414 187.936 342.282 187.768 342.174C187.6 342.054 187.432 341.994 187.264 341.994C187.024 341.994 186.826 342.084 186.67 342.264C186.514 342.432 186.424 342.678 186.4 343.002H184.978C185.002 342.198 185.2 341.562 185.572 341.094C185.944 340.614 186.448 340.374 187.084 340.374C187.396 340.374 187.672 340.434 187.912 340.554C188.152 340.662 188.368 340.794 188.56 340.95C188.764 341.106 188.95 341.244 189.118 341.364C189.286 341.472 189.448 341.526 189.604 341.526C189.856 341.526 190.06 341.442 190.216 341.274C190.372 341.094 190.456 340.854 190.468 340.554H191.89C191.878 341.322 191.68 341.946 191.296 342.426C190.924 342.894 190.42 343.128 189.784 343.128ZM200.463 354.144C199.359 354.144 198.387 353.928 197.547 353.496C196.719 353.064 196.077 352.476 195.621 351.732C195.165 350.976 194.937 350.118 194.937 349.158C194.937 348.186 195.159 347.328 195.603 346.584C196.059 345.828 196.677 345.24 197.457 344.82C198.237 344.388 199.119 344.172 200.103 344.172C201.051 344.172 201.903 344.376 202.659 344.784C203.427 345.18 204.033 345.756 204.477 346.512C204.921 347.256 205.143 348.15 205.143 349.194C205.143 349.302 205.137 349.428 205.125 349.572C205.113 349.704 205.101 349.83 205.089 349.95H197.223V348.312H203.613L202.533 348.798C202.533 348.294 202.431 347.856 202.227 347.484C202.023 347.112 201.741 346.824 201.381 346.62C201.021 346.404 200.601 346.296 200.121 346.296C199.641 346.296 199.215 346.404 198.843 346.62C198.483 346.824 198.201 347.118 197.997 347.502C197.793 347.874 197.691 348.318 197.691 348.834V349.266C197.691 349.794 197.805 350.262 198.033 350.67C198.273 351.066 198.603 351.372 199.023 351.588C199.455 351.792 199.959 351.894 200.535 351.894C201.051 351.894 201.501 351.816 201.885 351.66C202.281 351.504 202.641 351.27 202.965 350.958L204.459 352.578C204.015 353.082 203.457 353.472 202.785 353.748C202.113 354.012 201.339 354.144 200.463 354.144ZM210.271 354.144C209.443 354.144 208.645 354.048 207.877 353.856C207.121 353.652 206.521 353.4 206.077 353.1L207.013 351.084C207.457 351.36 207.979 351.588 208.579 351.768C209.191 351.936 209.791 352.02 210.379 352.02C211.027 352.02 211.483 351.942 211.747 351.786C212.023 351.63 212.161 351.414 212.161 351.138C212.161 350.91 212.053 350.742 211.837 350.634C211.633 350.514 211.357 350.424 211.009 350.364C210.661 350.304 210.277 350.244 209.857 350.184C209.449 350.124 209.035 350.046 208.615 349.95C208.195 349.842 207.811 349.686 207.463 349.482C207.115 349.278 206.833 349.002 206.617 348.654C206.413 348.306 206.311 347.856 206.311 347.304C206.311 346.692 206.485 346.152 206.833 345.684C207.193 345.216 207.709 344.85 208.381 344.586C209.053 344.31 209.857 344.172 210.793 344.172C211.453 344.172 212.125 344.244 212.809 344.388C213.493 344.532 214.063 344.742 214.519 345.018L213.583 347.016C213.115 346.74 212.641 346.554 212.161 346.458C211.693 346.35 211.237 346.296 210.793 346.296C210.169 346.296 209.713 346.38 209.425 346.548C209.137 346.716 208.993 346.932 208.993 347.196C208.993 347.436 209.095 347.616 209.299 347.736C209.515 347.856 209.797 347.952 210.145 348.024C210.493 348.096 210.871 348.162 211.279 348.222C211.699 348.27 212.119 348.348 212.539 348.456C212.959 348.564 213.337 348.72 213.673 348.924C214.021 349.116 214.303 349.386 214.519 349.734C214.735 350.07 214.843 350.514 214.843 351.066C214.843 351.666 214.663 352.2 214.303 352.668C213.943 353.124 213.421 353.484 212.737 353.748C212.065 354.012 211.243 354.144 210.271 354.144ZM123.102 376.144C121.998 376.144 121.026 375.928 120.186 375.496C119.358 375.064 118.716 374.476 118.26 373.732C117.804 372.976 117.576 372.118 117.576 371.158C117.576 370.186 117.798 369.328 118.242 368.584C118.698 367.828 119.316 367.24 120.096 366.82C120.876 366.388 121.758 366.172 122.742 366.172C123.69 366.172 124.542 366.376 125.298 366.784C126.066 367.18 126.672 367.756 127.116 368.512C127.56 369.256 127.782 370.15 127.782 371.194C127.782 371.302 127.776 371.428 127.764 371.572C127.752 371.704 127.74 371.83 127.728 371.95H119.862V370.312H126.252L125.172 370.798C125.172 370.294 125.07 369.856 124.866 369.484C124.662 369.112 124.38 368.824 124.02 368.62C123.66 368.404 123.24 368.296 122.76 368.296C122.28 368.296 121.854 368.404 121.482 368.62C121.122 368.824 120.84 369.118 120.636 369.502C120.432 369.874 120.33 370.318 120.33 370.834V371.266C120.33 371.794 120.444 372.262 120.672 372.67C120.912 373.066 121.242 373.372 121.662 373.588C122.094 373.792 122.598 373.894 123.174 373.894C123.69 373.894 124.14 373.816 124.524 373.66C124.92 373.504 125.28 373.27 125.604 372.958L127.098 374.578C126.654 375.082 126.096 375.472 125.424 375.748C124.752 376.012 123.978 376.144 123.102 376.144ZM128.164 376L132.502 370.312L132.448 371.86L128.29 366.316H131.44L134.068 369.934L132.88 369.97L135.598 366.316H138.586L134.41 371.806V370.294L138.73 376H135.544L132.79 372.148L133.96 372.31L131.224 376H128.164ZM144.474 376.144C143.43 376.144 142.5 375.934 141.684 375.514C140.868 375.082 140.226 374.488 139.758 373.732C139.302 372.976 139.074 372.118 139.074 371.158C139.074 370.186 139.302 369.328 139.758 368.584C140.226 367.828 140.868 367.24 141.684 366.82C142.5 366.388 143.43 366.172 144.474 366.172C145.494 366.172 146.382 366.388 147.138 366.82C147.894 367.24 148.452 367.846 148.812 368.638L146.634 369.808C146.382 369.352 146.064 369.016 145.68 368.8C145.308 368.584 144.9 368.476 144.456 368.476C143.976 368.476 143.544 368.584 143.16 368.8C142.776 369.016 142.47 369.322 142.242 369.718C142.026 370.114 141.918 370.594 141.918 371.158C141.918 371.722 142.026 372.202 142.242 372.598C142.47 372.994 142.776 373.3 143.16 373.516C143.544 373.732 143.976 373.84 144.456 373.84C144.9 373.84 145.308 373.738 145.68 373.534C146.064 373.318 146.382 372.976 146.634 372.508L148.812 373.696C148.452 374.476 147.894 375.082 147.138 375.514C146.382 375.934 145.494 376.144 144.474 376.144ZM150.376 376V362.644H153.184V376H150.376ZM159.876 376.144C159.072 376.144 158.352 375.988 157.716 375.676C157.092 375.364 156.606 374.89 156.258 374.254C155.91 373.606 155.736 372.784 155.736 371.788V366.316H158.544V371.374C158.544 372.178 158.712 372.772 159.048 373.156C159.396 373.528 159.882 373.714 160.506 373.714C160.938 373.714 161.322 373.624 161.658 373.444C161.994 373.252 162.258 372.964 162.45 372.58C162.642 372.184 162.738 371.692 162.738 371.104V366.316H165.546V376H162.882V373.336L163.368 374.11C163.044 374.782 162.564 375.292 161.928 375.64C161.304 375.976 160.62 376.144 159.876 376.144ZM171.406 376.144C170.578 376.144 169.78 376.048 169.012 375.856C168.256 375.652 167.656 375.4 167.212 375.1L168.148 373.084C168.592 373.36 169.114 373.588 169.714 373.768C170.326 373.936 170.926 374.02 171.514 374.02C172.162 374.02 172.618 373.942 172.882 373.786C173.158 373.63 173.296 373.414 173.296 373.138C173.296 372.91 173.188 372.742 172.972 372.634C172.768 372.514 172.492 372.424 172.144 372.364C171.796 372.304 171.412 372.244 170.992 372.184C170.584 372.124 170.17 372.046 169.75 371.95C169.33 371.842 168.946 371.686 168.598 371.482C168.25 371.278 167.968 371.002 167.752 370.654C167.548 370.306 167.446 369.856 167.446 369.304C167.446 368.692 167.62 368.152 167.968 367.684C168.328 367.216 168.844 366.85 169.516 366.586C170.188 366.31 170.992 366.172 171.928 366.172C172.588 366.172 173.26 366.244 173.944 366.388C174.628 366.532 175.198 366.742 175.654 367.018L174.718 369.016C174.25 368.74 173.776 368.554 173.296 368.458C172.828 368.35 172.372 368.296 171.928 368.296C171.304 368.296 170.848 368.38 170.56 368.548C170.272 368.716 170.128 368.932 170.128 369.196C170.128 369.436 170.23 369.616 170.434 369.736C170.65 369.856 170.932 369.952 171.28 370.024C171.628 370.096 172.006 370.162 172.414 370.222C172.834 370.27 173.254 370.348 173.674 370.456C174.094 370.564 174.472 370.72 174.808 370.924C175.156 371.116 175.438 371.386 175.654 371.734C175.87 372.07 175.978 372.514 175.978 373.066C175.978 373.666 175.798 374.2 175.438 374.668C175.078 375.124 174.556 375.484 173.872 375.748C173.2 376.012 172.378 376.144 171.406 376.144ZM177.71 376V366.316H180.518V376H177.71ZM179.114 364.966C178.598 364.966 178.178 364.816 177.854 364.516C177.53 364.216 177.368 363.844 177.368 363.4C177.368 362.956 177.53 362.584 177.854 362.284C178.178 361.984 178.598 361.834 179.114 361.834C179.63 361.834 180.05 361.978 180.374 362.266C180.698 362.542 180.86 362.902 180.86 363.346C180.86 363.814 180.698 364.204 180.374 364.516C180.062 364.816 179.642 364.966 179.114 364.966ZM185.752 376L181.684 366.316H184.582L187.966 374.65H186.526L190.036 366.316H192.736L188.65 376H185.752ZM199.506 376V374.11L199.326 373.696V370.312C199.326 369.712 199.14 369.244 198.768 368.908C198.408 368.572 197.85 368.404 197.094 368.404C196.578 368.404 196.068 368.488 195.564 368.656C195.072 368.812 194.652 369.028 194.304 369.304L193.296 367.342C193.824 366.97 194.46 366.682 195.204 366.478C195.948 366.274 196.704 366.172 197.472 366.172C198.948 366.172 200.094 366.52 200.91 367.216C201.726 367.912 202.134 368.998 202.134 370.474V376H199.506ZM196.554 376.144C195.798 376.144 195.15 376.018 194.61 375.766C194.07 375.502 193.656 375.148 193.368 374.704C193.08 374.26 192.936 373.762 192.936 373.21C192.936 372.634 193.074 372.13 193.35 371.698C193.638 371.266 194.088 370.93 194.7 370.69C195.312 370.438 196.11 370.312 197.094 370.312H199.668V371.95H197.4C196.74 371.95 196.284 372.058 196.032 372.274C195.792 372.49 195.672 372.76 195.672 373.084C195.672 373.444 195.81 373.732 196.086 373.948C196.374 374.152 196.764 374.254 197.256 374.254C197.724 374.254 198.144 374.146 198.516 373.93C198.888 373.702 199.158 373.372 199.326 372.94L199.758 374.236C199.554 374.86 199.182 375.334 198.642 375.658C198.102 375.982 197.406 376.144 196.554 376.144ZM207.933 376.144C207.105 376.144 206.307 376.048 205.539 375.856C204.783 375.652 204.183 375.4 203.739 375.1L204.675 373.084C205.119 373.36 205.641 373.588 206.241 373.768C206.853 373.936 207.453 374.02 208.041 374.02C208.689 374.02 209.145 373.942 209.409 373.786C209.685 373.63 209.823 373.414 209.823 373.138C209.823 372.91 209.715 372.742 209.499 372.634C209.295 372.514 209.019 372.424 208.671 372.364C208.323 372.304 207.939 372.244 207.519 372.184C207.111 372.124 206.697 372.046 206.277 371.95C205.857 371.842 205.473 371.686 205.125 371.482C204.777 371.278 204.495 371.002 204.279 370.654C204.075 370.306 203.973 369.856 203.973 369.304C203.973 368.692 204.147 368.152 204.495 367.684C204.855 367.216 205.371 366.85 206.043 366.586C206.715 366.31 207.519 366.172 208.455 366.172C209.115 366.172 209.787 366.244 210.471 366.388C211.155 366.532 211.725 366.742 212.181 367.018L211.245 369.016C210.777 368.74 210.303 368.554 209.823 368.458C209.355 368.35 208.899 368.296 208.455 368.296C207.831 368.296 207.375 368.38 207.087 368.548C206.799 368.716 206.655 368.932 206.655 369.196C206.655 369.436 206.757 369.616 206.961 369.736C207.177 369.856 207.459 369.952 207.807 370.024C208.155 370.096 208.533 370.162 208.941 370.222C209.361 370.27 209.781 370.348 210.201 370.456C210.621 370.564 210.999 370.72 211.335 370.924C211.683 371.116 211.965 371.386 212.181 371.734C212.397 372.07 212.505 372.514 212.505 373.066C212.505 373.666 212.325 374.2 211.965 374.668C211.605 375.124 211.083 375.484 210.399 375.748C209.727 376.012 208.905 376.144 207.933 376.144Z" fill="#181818"/>
</g>
<g filter="url(#filter1_d_265_749)">
<rect x="264" y="300" width="220" height="205" rx="20" fill="white" shape-rendering="crispEdges"/>
<rect x="264.5" y="300.5" width="219" height="204" rx="19.5" stroke="#F4F4F4" shape-rendering="crispEdges"/>
<rect width="88" height="3" rx="1.5" transform="matrix(-1 0 0 1 372 320)" fill="url(#paint4_linear_265_749)"/>
<rect x="284" y="354" width="56" height="56" rx="28" fill="url(#paint5_linear_265_749)"/>
<path d="M312 369.812C309.59 369.812 307.233 370.527 305.229 371.866C303.225 373.206 301.663 375.109 300.74 377.336C299.818 379.563 299.576 382.014 300.047 384.378C300.517 386.742 301.678 388.913 303.382 390.618C305.087 392.322 307.258 393.483 309.622 393.953C311.986 394.424 314.437 394.182 316.664 393.26C318.891 392.337 320.794 390.775 322.134 388.771C323.473 386.767 324.188 384.41 324.188 382C324.184 378.769 322.899 375.671 320.614 373.386C318.329 371.101 315.231 369.816 312 369.812ZM317.351 379.851L310.788 386.413C310.701 386.5 310.598 386.57 310.484 386.617C310.37 386.664 310.248 386.688 310.125 386.688C310.002 386.688 309.88 386.664 309.766 386.617C309.652 386.57 309.549 386.5 309.462 386.413L306.649 383.601C306.473 383.425 306.374 383.186 306.374 382.938C306.374 382.689 306.473 382.45 306.649 382.274C306.825 382.098 307.064 381.999 307.313 381.999C307.561 381.999 307.8 382.098 307.976 382.274L310.125 384.425L316.024 378.524C316.111 378.437 316.215 378.368 316.329 378.321C316.442 378.274 316.564 378.249 316.688 378.249C316.811 378.249 316.933 378.274 317.046 378.321C317.16 378.368 317.264 378.437 317.351 378.524C317.438 378.611 317.507 378.715 317.554 378.829C317.601 378.942 317.626 379.064 317.626 379.188C317.626 379.311 317.601 379.433 317.554 379.546C317.507 379.66 317.438 379.764 317.351 379.851Z" fill="white"/>
<path d="M283.838 458L289.454 445.4H292.334L297.968 458H294.908L290.3 446.876H291.452L286.826 458H283.838ZM286.646 455.3L287.42 453.086H293.9L294.692 455.3H286.646ZM303.669 458.144C302.625 458.144 301.695 457.934 300.879 457.514C300.063 457.082 299.421 456.488 298.953 455.732C298.497 454.976 298.269 454.118 298.269 453.158C298.269 452.186 298.497 451.328 298.953 450.584C299.421 449.828 300.063 449.24 300.879 448.82C301.695 448.388 302.625 448.172 303.669 448.172C304.689 448.172 305.577 448.388 306.333 448.82C307.089 449.24 307.647 449.846 308.007 450.638L305.829 451.808C305.577 451.352 305.259 451.016 304.875 450.8C304.503 450.584 304.095 450.476 303.651 450.476C303.171 450.476 302.739 450.584 302.355 450.8C301.971 451.016 301.665 451.322 301.437 451.718C301.221 452.114 301.113 452.594 301.113 453.158C301.113 453.722 301.221 454.202 301.437 454.598C301.665 454.994 301.971 455.3 302.355 455.516C302.739 455.732 303.171 455.84 303.651 455.84C304.095 455.84 304.503 455.738 304.875 455.534C305.259 455.318 305.577 454.976 305.829 454.508L308.007 455.696C307.647 456.476 307.089 457.082 306.333 457.514C305.577 457.934 304.689 458.144 303.669 458.144ZM314.307 458.144C313.203 458.144 312.231 457.928 311.391 457.496C310.563 457.064 309.921 456.476 309.465 455.732C309.009 454.976 308.781 454.118 308.781 453.158C308.781 452.186 309.003 451.328 309.447 450.584C309.903 449.828 310.521 449.24 311.301 448.82C312.081 448.388 312.963 448.172 313.947 448.172C314.895 448.172 315.747 448.376 316.503 448.784C317.271 449.18 317.877 449.756 318.321 450.512C318.765 451.256 318.987 452.15 318.987 453.194C318.987 453.302 318.981 453.428 318.969 453.572C318.957 453.704 318.945 453.83 318.933 453.95H311.067V452.312H317.457L316.377 452.798C316.377 452.294 316.275 451.856 316.071 451.484C315.867 451.112 315.585 450.824 315.225 450.62C314.865 450.404 314.445 450.296 313.965 450.296C313.485 450.296 313.059 450.404 312.687 450.62C312.327 450.824 312.045 451.118 311.841 451.502C311.637 451.874 311.535 452.318 311.535 452.834V453.266C311.535 453.794 311.649 454.262 311.877 454.67C312.117 455.066 312.447 455.372 312.867 455.588C313.299 455.792 313.803 455.894 314.379 455.894C314.895 455.894 315.345 455.816 315.729 455.66C316.125 455.504 316.485 455.27 316.809 454.958L318.303 456.578C317.859 457.082 317.301 457.472 316.629 457.748C315.957 458.012 315.183 458.144 314.307 458.144ZM324.115 458.144C323.287 458.144 322.489 458.048 321.721 457.856C320.965 457.652 320.365 457.4 319.921 457.1L320.857 455.084C321.301 455.36 321.823 455.588 322.423 455.768C323.035 455.936 323.635 456.02 324.223 456.02C324.871 456.02 325.327 455.942 325.591 455.786C325.867 455.63 326.005 455.414 326.005 455.138C326.005 454.91 325.897 454.742 325.681 454.634C325.477 454.514 325.201 454.424 324.853 454.364C324.505 454.304 324.121 454.244 323.701 454.184C323.293 454.124 322.879 454.046 322.459 453.95C322.039 453.842 321.655 453.686 321.307 453.482C320.959 453.278 320.677 453.002 320.461 452.654C320.257 452.306 320.155 451.856 320.155 451.304C320.155 450.692 320.329 450.152 320.677 449.684C321.037 449.216 321.553 448.85 322.225 448.586C322.897 448.31 323.701 448.172 324.637 448.172C325.297 448.172 325.969 448.244 326.653 448.388C327.337 448.532 327.907 448.742 328.363 449.018L327.427 451.016C326.959 450.74 326.485 450.554 326.005 450.458C325.537 450.35 325.081 450.296 324.637 450.296C324.013 450.296 323.557 450.38 323.269 450.548C322.981 450.716 322.837 450.932 322.837 451.196C322.837 451.436 322.939 451.616 323.143 451.736C323.359 451.856 323.641 451.952 323.989 452.024C324.337 452.096 324.715 452.162 325.123 452.222C325.543 452.27 325.963 452.348 326.383 452.456C326.803 452.564 327.181 452.72 327.517 452.924C327.865 453.116 328.147 453.386 328.363 453.734C328.579 454.07 328.687 454.514 328.687 455.066C328.687 455.666 328.507 456.2 328.147 456.668C327.787 457.124 327.265 457.484 326.581 457.748C325.909 458.012 325.087 458.144 324.115 458.144ZM333.677 458.144C332.849 458.144 332.051 458.048 331.283 457.856C330.527 457.652 329.927 457.4 329.483 457.1L330.419 455.084C330.863 455.36 331.385 455.588 331.985 455.768C332.597 455.936 333.197 456.02 333.785 456.02C334.433 456.02 334.889 455.942 335.153 455.786C335.429 455.63 335.567 455.414 335.567 455.138C335.567 454.91 335.459 454.742 335.243 454.634C335.039 454.514 334.763 454.424 334.415 454.364C334.067 454.304 333.683 454.244 333.263 454.184C332.855 454.124 332.441 454.046 332.021 453.95C331.601 453.842 331.217 453.686 330.869 453.482C330.521 453.278 330.239 453.002 330.023 452.654C329.819 452.306 329.717 451.856 329.717 451.304C329.717 450.692 329.891 450.152 330.239 449.684C330.599 449.216 331.115 448.85 331.787 448.586C332.459 448.31 333.263 448.172 334.199 448.172C334.859 448.172 335.531 448.244 336.215 448.388C336.899 448.532 337.469 448.742 337.925 449.018L336.989 451.016C336.521 450.74 336.047 450.554 335.567 450.458C335.099 450.35 334.643 450.296 334.199 450.296C333.575 450.296 333.119 450.38 332.831 450.548C332.543 450.716 332.399 450.932 332.399 451.196C332.399 451.436 332.501 451.616 332.705 451.736C332.921 451.856 333.203 451.952 333.551 452.024C333.899 452.096 334.277 452.162 334.685 452.222C335.105 452.27 335.525 452.348 335.945 452.456C336.365 452.564 336.743 452.72 337.079 452.924C337.427 453.116 337.709 453.386 337.925 453.734C338.141 454.07 338.249 454.514 338.249 455.066C338.249 455.666 338.069 456.2 337.709 456.668C337.349 457.124 336.827 457.484 336.143 457.748C335.471 458.012 334.649 458.144 333.677 458.144ZM344.59 458.144C343.558 458.144 342.64 457.928 341.836 457.496C341.044 457.064 340.414 456.476 339.946 455.732C339.49 454.976 339.262 454.118 339.262 453.158C339.262 452.186 339.49 451.328 339.946 450.584C340.414 449.828 341.044 449.24 341.836 448.82C342.64 448.388 343.558 448.172 344.59 448.172C345.61 448.172 346.522 448.388 347.326 448.82C348.13 449.24 348.76 449.822 349.216 450.566C349.672 451.31 349.9 452.174 349.9 453.158C349.9 454.118 349.672 454.976 349.216 455.732C348.76 456.476 348.13 457.064 347.326 457.496C346.522 457.928 345.61 458.144 344.59 458.144ZM344.59 455.84C345.058 455.84 345.478 455.732 345.85 455.516C346.222 455.3 346.516 454.994 346.732 454.598C346.948 454.19 347.056 453.71 347.056 453.158C347.056 452.594 346.948 452.114 346.732 451.718C346.516 451.322 346.222 451.016 345.85 450.8C345.478 450.584 345.058 450.476 344.59 450.476C344.122 450.476 343.702 450.584 343.33 450.8C342.958 451.016 342.658 451.322 342.43 451.718C342.214 452.114 342.106 452.594 342.106 453.158C342.106 453.71 342.214 454.19 342.43 454.598C342.658 454.994 342.958 455.3 343.33 455.516C343.702 455.732 344.122 455.84 344.59 455.84ZM362.814 458V456.11L362.634 455.696V452.312C362.634 451.712 362.448 451.244 362.076 450.908C361.716 450.572 361.158 450.404 360.402 450.404C359.886 450.404 359.376 450.488 358.872 450.656C358.38 450.812 357.96 451.028 357.612 451.304L356.604 449.342C357.132 448.97 357.768 448.682 358.512 448.478C359.256 448.274 360.012 448.172 360.78 448.172C362.256 448.172 363.402 448.52 364.218 449.216C365.034 449.912 365.442 450.998 365.442 452.474V458H362.814ZM359.862 458.144C359.106 458.144 358.458 458.018 357.918 457.766C357.378 457.502 356.964 457.148 356.676 456.704C356.388 456.26 356.244 455.762 356.244 455.21C356.244 454.634 356.382 454.13 356.658 453.698C356.946 453.266 357.396 452.93 358.008 452.69C358.62 452.438 359.418 452.312 360.402 452.312H362.976V453.95H360.708C360.048 453.95 359.592 454.058 359.34 454.274C359.1 454.49 358.98 454.76 358.98 455.084C358.98 455.444 359.118 455.732 359.394 455.948C359.682 456.152 360.072 456.254 360.564 456.254C361.032 456.254 361.452 456.146 361.824 455.93C362.196 455.702 362.466 455.372 362.634 454.94L363.066 456.236C362.862 456.86 362.49 457.334 361.95 457.658C361.41 457.982 360.714 458.144 359.862 458.144ZM372.662 458.144C371.63 458.144 370.712 457.928 369.908 457.496C369.116 457.064 368.486 456.476 368.018 455.732C367.562 454.976 367.334 454.118 367.334 453.158C367.334 452.186 367.562 451.328 368.018 450.584C368.486 449.828 369.116 449.24 369.908 448.82C370.712 448.388 371.63 448.172 372.662 448.172C373.682 448.172 374.594 448.388 375.398 448.82C376.202 449.24 376.832 449.822 377.288 450.566C377.744 451.31 377.972 452.174 377.972 453.158C377.972 454.118 377.744 454.976 377.288 455.732C376.832 456.476 376.202 457.064 375.398 457.496C374.594 457.928 373.682 458.144 372.662 458.144ZM372.662 455.84C373.13 455.84 373.55 455.732 373.922 455.516C374.294 455.3 374.588 454.994 374.804 454.598C375.02 454.19 375.128 453.71 375.128 453.158C375.128 452.594 375.02 452.114 374.804 451.718C374.588 451.322 374.294 451.016 373.922 450.8C373.55 450.584 373.13 450.476 372.662 450.476C372.194 450.476 371.774 450.584 371.402 450.8C371.03 451.016 370.73 451.322 370.502 451.718C370.286 452.114 370.178 452.594 370.178 453.158C370.178 453.71 370.286 454.19 370.502 454.598C370.73 454.994 371.03 455.3 371.402 455.516C371.774 455.732 372.194 455.84 372.662 455.84ZM383.107 458.144C382.279 458.144 381.481 458.048 380.713 457.856C379.957 457.652 379.357 457.4 378.913 457.1L379.849 455.084C380.293 455.36 380.815 455.588 381.415 455.768C382.027 455.936 382.627 456.02 383.215 456.02C383.863 456.02 384.319 455.942 384.583 455.786C384.859 455.63 384.997 455.414 384.997 455.138C384.997 454.91 384.889 454.742 384.673 454.634C384.469 454.514 384.193 454.424 383.845 454.364C383.497 454.304 383.113 454.244 382.693 454.184C382.285 454.124 381.871 454.046 381.451 453.95C381.031 453.842 380.647 453.686 380.299 453.482C379.951 453.278 379.669 453.002 379.453 452.654C379.249 452.306 379.147 451.856 379.147 451.304C379.147 450.692 379.321 450.152 379.669 449.684C380.029 449.216 380.545 448.85 381.217 448.586C381.889 448.31 382.693 448.172 383.629 448.172C384.289 448.172 384.961 448.244 385.645 448.388C386.329 448.532 386.899 448.742 387.355 449.018L386.419 451.016C385.951 450.74 385.477 450.554 384.997 450.458C384.529 450.35 384.073 450.296 383.629 450.296C383.005 450.296 382.549 450.38 382.261 450.548C381.973 450.716 381.829 450.932 381.829 451.196C381.829 451.436 381.931 451.616 382.135 451.736C382.351 451.856 382.633 451.952 382.981 452.024C383.329 452.096 383.707 452.162 384.115 452.222C384.535 452.27 384.955 452.348 385.375 452.456C385.795 452.564 386.173 452.72 386.509 452.924C386.857 453.116 387.139 453.386 387.355 453.734C387.571 454.07 387.679 454.514 387.679 455.066C387.679 455.666 387.499 456.2 387.139 456.668C386.779 457.124 386.257 457.484 385.573 457.748C384.901 458.012 384.079 458.144 383.107 458.144ZM297.698 470.172C298.466 470.172 299.144 470.328 299.732 470.64C300.332 470.94 300.8 471.408 301.136 472.044C301.484 472.668 301.658 473.472 301.658 474.456V480H298.85V474.888C298.85 474.108 298.688 473.532 298.364 473.16C298.04 472.788 297.584 472.602 296.996 472.602C296.588 472.602 296.222 472.698 295.898 472.89C295.574 473.07 295.322 473.346 295.142 473.718C294.962 474.09 294.872 474.564 294.872 475.14V480H292.064V474.888C292.064 474.108 291.902 473.532 291.578 473.16C291.266 472.788 290.816 472.602 290.228 472.602C289.82 472.602 289.454 472.698 289.13 472.89C288.806 473.07 288.554 473.346 288.374 473.718C288.194 474.09 288.104 474.564 288.104 475.14V480H285.296V470.316H287.978V472.962L287.474 472.188C287.81 471.528 288.284 471.03 288.896 470.694C289.52 470.346 290.228 470.172 291.02 470.172C291.908 470.172 292.682 470.4 293.342 470.856C294.014 471.3 294.458 471.984 294.674 472.908L293.684 472.638C294.008 471.882 294.524 471.282 295.232 470.838C295.952 470.394 296.774 470.172 297.698 470.172ZM309.051 480.144C307.947 480.144 306.975 479.928 306.135 479.496C305.307 479.064 304.665 478.476 304.209 477.732C303.753 476.976 303.525 476.118 303.525 475.158C303.525 474.186 303.747 473.328 304.191 472.584C304.647 471.828 305.265 471.24 306.045 470.82C306.825 470.388 307.707 470.172 308.691 470.172C309.639 470.172 310.491 470.376 311.247 470.784C312.015 471.18 312.621 471.756 313.065 472.512C313.509 473.256 313.731 474.15 313.731 475.194C313.731 475.302 313.725 475.428 313.713 475.572C313.701 475.704 313.689 475.83 313.677 475.95H305.811V474.312H312.201L311.121 474.798C311.121 474.294 311.019 473.856 310.815 473.484C310.611 473.112 310.329 472.824 309.969 472.62C309.609 472.404 309.189 472.296 308.709 472.296C308.229 472.296 307.803 472.404 307.431 472.62C307.071 472.824 306.789 473.118 306.585 473.502C306.381 473.874 306.279 474.318 306.279 474.834V475.266C306.279 475.794 306.393 476.262 306.621 476.67C306.861 477.066 307.191 477.372 307.611 477.588C308.043 477.792 308.547 477.894 309.123 477.894C309.639 477.894 310.089 477.816 310.473 477.66C310.869 477.504 311.229 477.27 311.553 476.958L313.047 478.578C312.603 479.082 312.045 479.472 311.373 479.748C310.701 480.012 309.927 480.144 309.051 480.144ZM315.601 480V466.644H318.409V480H315.601ZM326.901 470.172C327.669 470.172 328.353 470.328 328.953 470.64C329.565 470.94 330.045 471.408 330.393 472.044C330.741 472.668 330.915 473.472 330.915 474.456V480H328.107V474.888C328.107 474.108 327.933 473.532 327.585 473.16C327.249 472.788 326.769 472.602 326.145 472.602C325.701 472.602 325.299 472.698 324.939 472.89C324.591 473.07 324.315 473.352 324.111 473.736C323.919 474.12 323.823 474.612 323.823 475.212V480H321.015V466.644H323.823V472.998L323.193 472.188C323.541 471.54 324.039 471.042 324.687 470.694C325.335 470.346 326.073 470.172 326.901 470.172ZM338.138 480.144C337.106 480.144 336.188 479.928 335.384 479.496C334.592 479.064 333.962 478.476 333.494 477.732C333.038 476.976 332.81 476.118 332.81 475.158C332.81 474.186 333.038 473.328 333.494 472.584C333.962 471.828 334.592 471.24 335.384 470.82C336.188 470.388 337.106 470.172 338.138 470.172C339.158 470.172 340.07 470.388 340.874 470.82C341.678 471.24 342.308 471.822 342.764 472.566C343.22 473.31 343.448 474.174 343.448 475.158C343.448 476.118 343.22 476.976 342.764 477.732C342.308 478.476 341.678 479.064 340.874 479.496C340.07 479.928 339.158 480.144 338.138 480.144ZM338.138 477.84C338.606 477.84 339.026 477.732 339.398 477.516C339.77 477.3 340.064 476.994 340.28 476.598C340.496 476.19 340.604 475.71 340.604 475.158C340.604 474.594 340.496 474.114 340.28 473.718C340.064 473.322 339.77 473.016 339.398 472.8C339.026 472.584 338.606 472.476 338.138 472.476C337.67 472.476 337.25 472.584 336.878 472.8C336.506 473.016 336.206 473.322 335.978 473.718C335.762 474.114 335.654 474.594 335.654 475.158C335.654 475.71 335.762 476.19 335.978 476.598C336.206 476.994 336.506 477.3 336.878 477.516C337.25 477.732 337.67 477.84 338.138 477.84ZM345.325 480V470.316H348.007V473.052L347.629 472.26C347.917 471.576 348.379 471.06 349.015 470.712C349.651 470.352 350.425 470.172 351.337 470.172V472.764C351.217 472.752 351.109 472.746 351.013 472.746C350.917 472.734 350.815 472.728 350.707 472.728C349.939 472.728 349.315 472.95 348.835 473.394C348.367 473.826 348.133 474.504 348.133 475.428V480H345.325ZM357.743 480.144C356.639 480.144 355.667 479.928 354.827 479.496C353.999 479.064 353.357 478.476 352.901 477.732C352.445 476.976 352.217 476.118 352.217 475.158C352.217 474.186 352.439 473.328 352.883 472.584C353.339 471.828 353.957 471.24 354.737 470.82C355.517 470.388 356.399 470.172 357.383 470.172C358.331 470.172 359.183 470.376 359.939 470.784C360.707 471.18 361.313 471.756 361.757 472.512C362.201 473.256 362.423 474.15 362.423 475.194C362.423 475.302 362.417 475.428 362.405 475.572C362.393 475.704 362.381 475.83 362.369 475.95H354.503V474.312H360.893L359.813 474.798C359.813 474.294 359.711 473.856 359.507 473.484C359.303 473.112 359.021 472.824 358.661 472.62C358.301 472.404 357.881 472.296 357.401 472.296C356.921 472.296 356.495 472.404 356.123 472.62C355.763 472.824 355.481 473.118 355.277 473.502C355.073 473.874 354.971 474.318 354.971 474.834V475.266C354.971 475.794 355.085 476.262 355.313 476.67C355.553 477.066 355.883 477.372 356.303 477.588C356.735 477.792 357.239 477.894 357.815 477.894C358.331 477.894 358.781 477.816 359.165 477.66C359.561 477.504 359.921 477.27 360.245 476.958L361.739 478.578C361.295 479.082 360.737 479.472 360.065 479.748C359.393 480.012 358.619 480.144 357.743 480.144ZM367.55 480.144C366.722 480.144 365.924 480.048 365.156 479.856C364.4 479.652 363.8 479.4 363.356 479.1L364.292 477.084C364.736 477.36 365.258 477.588 365.858 477.768C366.47 477.936 367.07 478.02 367.658 478.02C368.306 478.02 368.762 477.942 369.026 477.786C369.302 477.63 369.44 477.414 369.44 477.138C369.44 476.91 369.332 476.742 369.116 476.634C368.912 476.514 368.636 476.424 368.288 476.364C367.94 476.304 367.556 476.244 367.136 476.184C366.728 476.124 366.314 476.046 365.894 475.95C365.474 475.842 365.09 475.686 364.742 475.482C364.394 475.278 364.112 475.002 363.896 474.654C363.692 474.306 363.59 473.856 363.59 473.304C363.59 472.692 363.764 472.152 364.112 471.684C364.472 471.216 364.988 470.85 365.66 470.586C366.332 470.31 367.136 470.172 368.072 470.172C368.732 470.172 369.404 470.244 370.088 470.388C370.772 470.532 371.342 470.742 371.798 471.018L370.862 473.016C370.394 472.74 369.92 472.554 369.44 472.458C368.972 472.35 368.516 472.296 368.072 472.296C367.448 472.296 366.992 472.38 366.704 472.548C366.416 472.716 366.272 472.932 366.272 473.196C366.272 473.436 366.374 473.616 366.578 473.736C366.794 473.856 367.076 473.952 367.424 474.024C367.772 474.096 368.15 474.162 368.558 474.222C368.978 474.27 369.398 474.348 369.818 474.456C370.238 474.564 370.616 474.72 370.952 474.924C371.3 475.116 371.582 475.386 371.798 475.734C372.014 476.07 372.122 476.514 372.122 477.066C372.122 477.666 371.942 478.2 371.582 478.668C371.222 479.124 370.7 479.484 370.016 479.748C369.344 480.012 368.522 480.144 367.55 480.144ZM384.676 480.144C383.86 480.144 383.146 479.964 382.534 479.604C381.922 479.244 381.442 478.698 381.094 477.966C380.758 477.222 380.59 476.286 380.59 475.158C380.59 474.018 380.752 473.082 381.076 472.35C381.4 471.618 381.868 471.072 382.48 470.712C383.092 470.352 383.824 470.172 384.676 470.172C385.588 470.172 386.404 470.382 387.124 470.802C387.856 471.21 388.432 471.786 388.852 472.53C389.284 473.274 389.5 474.15 389.5 475.158C389.5 476.178 389.284 477.06 388.852 477.804C388.432 478.548 387.856 479.124 387.124 479.532C386.404 479.94 385.588 480.144 384.676 480.144ZM378.952 483.492V470.316H381.634V472.296L381.58 475.176L381.76 478.038V483.492H378.952ZM384.19 477.84C384.658 477.84 385.072 477.732 385.432 477.516C385.804 477.3 386.098 476.994 386.314 476.598C386.542 476.19 386.656 475.71 386.656 475.158C386.656 474.594 386.542 474.114 386.314 473.718C386.098 473.322 385.804 473.016 385.432 472.8C385.072 472.584 384.658 472.476 384.19 472.476C383.722 472.476 383.302 472.584 382.93 472.8C382.558 473.016 382.264 473.322 382.048 473.718C381.832 474.114 381.724 474.594 381.724 475.158C381.724 475.71 381.832 476.19 382.048 476.598C382.264 476.994 382.558 477.3 382.93 477.516C383.302 477.732 383.722 477.84 384.19 477.84ZM391.38 480V470.316H394.062V473.052L393.684 472.26C393.972 471.576 394.434 471.06 395.07 470.712C395.706 470.352 396.48 470.172 397.392 470.172V472.764C397.272 472.752 397.164 472.746 397.068 472.746C396.972 472.734 396.87 472.728 396.762 472.728C395.994 472.728 395.37 472.95 394.89 473.394C394.422 473.826 394.188 474.504 394.188 475.428V480H391.38ZM403.599 480.144C402.567 480.144 401.649 479.928 400.845 479.496C400.053 479.064 399.423 478.476 398.955 477.732C398.499 476.976 398.271 476.118 398.271 475.158C398.271 474.186 398.499 473.328 398.955 472.584C399.423 471.828 400.053 471.24 400.845 470.82C401.649 470.388 402.567 470.172 403.599 470.172C404.619 470.172 405.531 470.388 406.335 470.82C407.139 471.24 407.769 471.822 408.225 472.566C408.681 473.31 408.909 474.174 408.909 475.158C408.909 476.118 408.681 476.976 408.225 477.732C407.769 478.476 407.139 479.064 406.335 479.496C405.531 479.928 404.619 480.144 403.599 480.144ZM403.599 477.84C404.067 477.84 404.487 477.732 404.859 477.516C405.231 477.3 405.525 476.994 405.741 476.598C405.957 476.19 406.065 475.71 406.065 475.158C406.065 474.594 405.957 474.114 405.741 473.718C405.525 473.322 405.231 473.016 404.859 472.8C404.487 472.584 404.067 472.476 403.599 472.476C403.131 472.476 402.711 472.584 402.339 472.8C401.967 473.016 401.667 473.322 401.439 473.718C401.223 474.114 401.115 474.594 401.115 475.158C401.115 475.71 401.223 476.19 401.439 476.598C401.667 476.994 401.967 477.3 402.339 477.516C402.711 477.732 403.131 477.84 403.599 477.84ZM414.944 480.144C414.032 480.144 413.21 479.94 412.478 479.532C411.746 479.112 411.164 478.53 410.732 477.786C410.312 477.042 410.102 476.166 410.102 475.158C410.102 474.138 410.312 473.256 410.732 472.512C411.164 471.768 411.746 471.192 412.478 470.784C413.21 470.376 414.032 470.172 414.944 470.172C415.76 470.172 416.474 470.352 417.086 470.712C417.698 471.072 418.172 471.618 418.508 472.35C418.844 473.082 419.012 474.018 419.012 475.158C419.012 476.286 418.85 477.222 418.526 477.966C418.202 478.698 417.734 479.244 417.122 479.604C416.522 479.964 415.796 480.144 414.944 480.144ZM415.43 477.84C415.886 477.84 416.3 477.732 416.672 477.516C417.044 477.3 417.338 476.994 417.554 476.598C417.782 476.19 417.896 475.71 417.896 475.158C417.896 474.594 417.782 474.114 417.554 473.718C417.338 473.322 417.044 473.016 416.672 472.8C416.3 472.584 415.886 472.476 415.43 472.476C414.962 472.476 414.542 472.584 414.17 472.8C413.798 473.016 413.498 473.322 413.27 473.718C413.054 474.114 412.946 474.594 412.946 475.158C412.946 475.71 413.054 476.19 413.27 476.598C413.498 476.994 413.798 477.3 414.17 477.516C414.542 477.732 414.962 477.84 415.43 477.84ZM417.968 480V478.02L418.022 475.14L417.842 472.278V466.644H420.65V480H417.968ZM427.335 480.144C426.531 480.144 425.811 479.988 425.175 479.676C424.551 479.364 424.065 478.89 423.717 478.254C423.369 477.606 423.195 476.784 423.195 475.788V470.316H426.003V475.374C426.003 476.178 426.171 476.772 426.507 477.156C426.855 477.528 427.341 477.714 427.965 477.714C428.397 477.714 428.781 477.624 429.117 477.444C429.453 477.252 429.717 476.964 429.909 476.58C430.101 476.184 430.197 475.692 430.197 475.104V470.316H433.005V480H430.341V477.336L430.827 478.11C430.503 478.782 430.023 479.292 429.387 479.64C428.763 479.976 428.079 480.144 427.335 480.144ZM439.567 480.144C438.427 480.144 437.539 479.856 436.903 479.28C436.267 478.692 435.949 477.822 435.949 476.67V468.174H438.757V476.634C438.757 477.042 438.865 477.36 439.081 477.588C439.297 477.804 439.591 477.912 439.963 477.912C440.407 477.912 440.785 477.792 441.097 477.552L441.853 479.532C441.565 479.736 441.217 479.892 440.809 480C440.413 480.096 439.999 480.144 439.567 480.144ZM434.455 472.692V470.532H441.169V472.692H434.455ZM447.738 480.144C446.706 480.144 445.788 479.928 444.984 479.496C444.192 479.064 443.562 478.476 443.094 477.732C442.638 476.976 442.41 476.118 442.41 475.158C442.41 474.186 442.638 473.328 443.094 472.584C443.562 471.828 444.192 471.24 444.984 470.82C445.788 470.388 446.706 470.172 447.738 470.172C448.758 470.172 449.67 470.388 450.474 470.82C451.278 471.24 451.908 471.822 452.364 472.566C452.82 473.31 453.048 474.174 453.048 475.158C453.048 476.118 452.82 476.976 452.364 477.732C451.908 478.476 451.278 479.064 450.474 479.496C449.67 479.928 448.758 480.144 447.738 480.144ZM447.738 477.84C448.206 477.84 448.626 477.732 448.998 477.516C449.37 477.3 449.664 476.994 449.88 476.598C450.096 476.19 450.204 475.71 450.204 475.158C450.204 474.594 450.096 474.114 449.88 473.718C449.664 473.322 449.37 473.016 448.998 472.8C448.626 472.584 448.206 472.476 447.738 472.476C447.27 472.476 446.85 472.584 446.478 472.8C446.106 473.016 445.806 473.322 445.578 473.718C445.362 474.114 445.254 474.594 445.254 475.158C445.254 475.71 445.362 476.19 445.578 476.598C445.806 476.994 446.106 477.3 446.478 477.516C446.85 477.732 447.27 477.84 447.738 477.84ZM458.183 480.144C457.355 480.144 456.557 480.048 455.789 479.856C455.033 479.652 454.433 479.4 453.989 479.1L454.925 477.084C455.369 477.36 455.891 477.588 456.491 477.768C457.103 477.936 457.703 478.02 458.291 478.02C458.939 478.02 459.395 477.942 459.659 477.786C459.935 477.63 460.073 477.414 460.073 477.138C460.073 476.91 459.965 476.742 459.749 476.634C459.545 476.514 459.269 476.424 458.921 476.364C458.573 476.304 458.189 476.244 457.769 476.184C457.361 476.124 456.947 476.046 456.527 475.95C456.107 475.842 455.723 475.686 455.375 475.482C455.027 475.278 454.745 475.002 454.529 474.654C454.325 474.306 454.223 473.856 454.223 473.304C454.223 472.692 454.397 472.152 454.745 471.684C455.105 471.216 455.621 470.85 456.293 470.586C456.965 470.31 457.769 470.172 458.705 470.172C459.365 470.172 460.037 470.244 460.721 470.388C461.405 470.532 461.975 470.742 462.431 471.018L461.495 473.016C461.027 472.74 460.553 472.554 460.073 472.458C459.605 472.35 459.149 472.296 458.705 472.296C458.081 472.296 457.625 472.38 457.337 472.548C457.049 472.716 456.905 472.932 456.905 473.196C456.905 473.436 457.007 473.616 457.211 473.736C457.427 473.856 457.709 473.952 458.057 474.024C458.405 474.096 458.783 474.162 459.191 474.222C459.611 474.27 460.031 474.348 460.451 474.456C460.871 474.564 461.249 474.72 461.585 474.924C461.933 475.116 462.215 475.386 462.431 475.734C462.647 476.07 462.755 476.514 462.755 477.066C462.755 477.666 462.575 478.2 462.215 478.668C461.855 479.124 461.333 479.484 460.649 479.748C459.977 480.012 459.155 480.144 458.183 480.144Z" fill="#181818"/>
</g>
<g filter="url(#filter2_d_265_749)">
<rect x="428" y="250" width="219" height="205" rx="20" fill="white" shape-rendering="crispEdges"/>
<rect x="428.5" y="250.5" width="218" height="204" rx="19.5" stroke="#F4F4F4" shape-rendering="crispEdges"/>
<rect width="88" height="3" rx="1.5" transform="matrix(-1 0 0 1 536 270)" fill="url(#paint6_linear_265_749)"/>
<rect x="448" y="304" width="56" height="56" rx="28" fill="url(#paint7_linear_265_749)"/>
<path d="M479.75 318.875C478.27 318.876 476.812 319.228 475.494 319.9C474.176 320.573 473.035 321.547 472.166 322.745C471.296 323.942 470.723 325.328 470.491 326.789C470.259 328.251 470.377 329.746 470.833 331.154L464.087 337.899C464 337.986 463.931 338.09 463.884 338.204C463.837 338.317 463.812 338.439 463.813 338.562V343.25C463.813 343.499 463.911 343.737 464.087 343.913C464.263 344.089 464.501 344.188 464.75 344.188H469.438C469.686 344.188 469.925 344.089 470.1 343.913C470.276 343.737 470.375 343.499 470.375 343.25V341.375H472.25C472.499 341.375 472.737 341.276 472.913 341.1C473.089 340.925 473.188 340.686 473.188 340.438V338.562H475.062C475.186 338.563 475.308 338.538 475.421 338.491C475.535 338.444 475.639 338.375 475.726 338.288L476.846 337.167C478.135 337.585 479.498 337.719 480.844 337.56C482.189 337.401 483.484 336.952 484.639 336.244C485.794 335.536 486.782 334.586 487.535 333.46C488.288 332.334 488.788 331.058 489 329.72C489.213 328.382 489.133 327.014 488.765 325.71C488.398 324.406 487.753 323.197 486.874 322.166C485.995 321.135 484.903 320.307 483.673 319.739C482.443 319.171 481.105 318.876 479.75 318.875ZM482.094 327.781C481.723 327.781 481.36 327.671 481.052 327.465C480.744 327.259 480.503 326.966 480.361 326.624C480.22 326.281 480.182 325.904 480.255 325.54C480.327 325.177 480.506 324.843 480.768 324.58C481.03 324.318 481.364 324.14 481.728 324.067C482.092 323.995 482.469 324.032 482.811 324.174C483.154 324.316 483.447 324.556 483.653 324.865C483.859 325.173 483.969 325.535 483.969 325.906C483.969 326.404 483.771 326.88 483.42 327.232C483.068 327.584 482.591 327.781 482.094 327.781Z" fill="white"/>
<path d="M449.494 408V395.4H452.41V405.624H458.728V408H449.494ZM466.17 408V406.11L465.99 405.696V402.312C465.99 401.712 465.804 401.244 465.432 400.908C465.072 400.572 464.514 400.404 463.758 400.404C463.242 400.404 462.732 400.488 462.228 400.656C461.736 400.812 461.316 401.028 460.968 401.304L459.96 399.342C460.488 398.97 461.124 398.682 461.868 398.478C462.612 398.274 463.368 398.172 464.136 398.172C465.612 398.172 466.758 398.52 467.574 399.216C468.39 399.912 468.798 400.998 468.798 402.474V408H466.17ZM463.218 408.144C462.462 408.144 461.814 408.018 461.274 407.766C460.734 407.502 460.32 407.148 460.032 406.704C459.744 406.26 459.6 405.762 459.6 405.21C459.6 404.634 459.738 404.13 460.014 403.698C460.302 403.266 460.752 402.93 461.364 402.69C461.976 402.438 462.774 402.312 463.758 402.312H466.332V403.95H464.064C463.404 403.95 462.948 404.058 462.696 404.274C462.456 404.49 462.336 404.76 462.336 405.084C462.336 405.444 462.474 405.732 462.75 405.948C463.038 406.152 463.428 406.254 463.92 406.254C464.388 406.254 464.808 406.146 465.18 405.93C465.552 405.702 465.822 405.372 465.99 404.94L466.422 406.236C466.218 406.86 465.846 407.334 465.306 407.658C464.766 407.982 464.07 408.144 463.218 408.144ZM477.225 398.172C477.993 398.172 478.677 398.328 479.277 398.64C479.889 398.94 480.369 399.408 480.717 400.044C481.065 400.668 481.239 401.472 481.239 402.456V408H478.431V402.888C478.431 402.108 478.257 401.532 477.909 401.16C477.573 400.788 477.093 400.602 476.469 400.602C476.025 400.602 475.623 400.698 475.263 400.89C474.915 401.07 474.639 401.352 474.435 401.736C474.243 402.12 474.147 402.612 474.147 403.212V408H471.339V398.316H474.021V400.998L473.517 400.188C473.865 399.54 474.363 399.042 475.011 398.694C475.659 398.346 476.397 398.172 477.225 398.172ZM488.535 408.144C487.491 408.144 486.561 407.934 485.745 407.514C484.929 407.082 484.287 406.488 483.819 405.732C483.363 404.976 483.135 404.118 483.135 403.158C483.135 402.186 483.363 401.328 483.819 400.584C484.287 399.828 484.929 399.24 485.745 398.82C486.561 398.388 487.491 398.172 488.535 398.172C489.555 398.172 490.443 398.388 491.199 398.82C491.955 399.24 492.513 399.846 492.873 400.638L490.695 401.808C490.443 401.352 490.125 401.016 489.741 400.8C489.369 400.584 488.961 400.476 488.517 400.476C488.037 400.476 487.605 400.584 487.221 400.8C486.837 401.016 486.531 401.322 486.303 401.718C486.087 402.114 485.979 402.594 485.979 403.158C485.979 403.722 486.087 404.202 486.303 404.598C486.531 404.994 486.837 405.3 487.221 405.516C487.605 405.732 488.037 405.84 488.517 405.84C488.961 405.84 489.369 405.738 489.741 405.534C490.125 405.318 490.443 404.976 490.695 404.508L492.873 405.696C492.513 406.476 491.955 407.082 491.199 407.514C490.443 407.934 489.555 408.144 488.535 408.144ZM487.509 412.176C487.197 412.176 486.891 412.14 486.591 412.068C486.303 411.996 486.051 411.906 485.835 411.798L486.267 410.592C486.447 410.676 486.633 410.742 486.825 410.79C487.017 410.838 487.221 410.862 487.437 410.862C487.773 410.862 488.013 410.808 488.157 410.7C488.301 410.592 488.373 410.454 488.373 410.286C488.373 410.13 488.301 410.004 488.157 409.908C488.025 409.812 487.803 409.764 487.491 409.764H486.879L487.347 407.856H488.841L488.589 408.9C489.129 408.96 489.525 409.128 489.777 409.404C490.029 409.692 490.155 410.022 490.155 410.394C490.155 410.934 489.915 411.366 489.435 411.69C488.955 412.014 488.313 412.176 487.509 412.176ZM500.429 408V406.11L500.249 405.696V402.312C500.249 401.712 500.063 401.244 499.691 400.908C499.331 400.572 498.773 400.404 498.017 400.404C497.501 400.404 496.991 400.488 496.487 400.656C495.995 400.812 495.575 401.028 495.227 401.304L494.219 399.342C494.747 398.97 495.383 398.682 496.127 398.478C496.871 398.274 497.627 398.172 498.395 398.172C499.871 398.172 501.017 398.52 501.833 399.216C502.649 399.912 503.057 400.998 503.057 402.474V408H500.429ZM497.477 408.144C496.721 408.144 496.073 408.018 495.533 407.766C494.993 407.502 494.579 407.148 494.291 406.704C494.003 406.26 493.859 405.762 493.859 405.21C493.859 404.634 493.997 404.13 494.273 403.698C494.561 403.266 495.011 402.93 495.623 402.69C496.235 402.438 497.033 402.312 498.017 402.312H500.591V403.95H498.323C497.663 403.95 497.207 404.058 496.955 404.274C496.715 404.49 496.595 404.76 496.595 405.084C496.595 405.444 496.733 405.732 497.009 405.948C497.297 406.152 497.687 406.254 498.179 406.254C498.647 406.254 499.067 406.146 499.439 405.93C499.811 405.702 500.081 405.372 500.249 404.94L500.681 406.236C500.477 406.86 500.105 407.334 499.565 407.658C499.025 407.982 498.329 408.144 497.477 408.144ZM518.001 398.172C518.769 398.172 519.447 398.328 520.035 398.64C520.635 398.94 521.103 399.408 521.439 400.044C521.787 400.668 521.961 401.472 521.961 402.456V408H519.153V402.888C519.153 402.108 518.991 401.532 518.667 401.16C518.343 400.788 517.887 400.602 517.299 400.602C516.891 400.602 516.525 400.698 516.201 400.89C515.877 401.07 515.625 401.346 515.445 401.718C515.265 402.09 515.175 402.564 515.175 403.14V408H512.367V402.888C512.367 402.108 512.205 401.532 511.881 401.16C511.569 400.788 511.119 400.602 510.531 400.602C510.123 400.602 509.757 400.698 509.433 400.89C509.109 401.07 508.857 401.346 508.677 401.718C508.497 402.09 508.407 402.564 508.407 403.14V408H505.599V398.316H508.281V400.962L507.777 400.188C508.113 399.528 508.587 399.03 509.199 398.694C509.823 398.346 510.531 398.172 511.323 398.172C512.211 398.172 512.985 398.4 513.645 398.856C514.317 399.3 514.761 399.984 514.977 400.908L513.987 400.638C514.311 399.882 514.827 399.282 515.535 398.838C516.255 398.394 517.077 398.172 518.001 398.172ZM529.354 408.144C528.25 408.144 527.278 407.928 526.438 407.496C525.61 407.064 524.968 406.476 524.512 405.732C524.056 404.976 523.828 404.118 523.828 403.158C523.828 402.186 524.05 401.328 524.494 400.584C524.95 399.828 525.568 399.24 526.348 398.82C527.128 398.388 528.01 398.172 528.994 398.172C529.942 398.172 530.794 398.376 531.55 398.784C532.318 399.18 532.924 399.756 533.368 400.512C533.812 401.256 534.034 402.15 534.034 403.194C534.034 403.302 534.028 403.428 534.016 403.572C534.004 403.704 533.992 403.83 533.98 403.95H526.114V402.312H532.504L531.424 402.798C531.424 402.294 531.322 401.856 531.118 401.484C530.914 401.112 530.632 400.824 530.272 400.62C529.912 400.404 529.492 400.296 529.012 400.296C528.532 400.296 528.106 400.404 527.734 400.62C527.374 400.824 527.092 401.118 526.888 401.502C526.684 401.874 526.582 402.318 526.582 402.834V403.266C526.582 403.794 526.696 404.262 526.924 404.67C527.164 405.066 527.494 405.372 527.914 405.588C528.346 405.792 528.85 405.894 529.426 405.894C529.942 405.894 530.392 405.816 530.776 405.66C531.172 405.504 531.532 405.27 531.856 404.958L533.35 406.578C532.906 407.082 532.348 407.472 531.676 407.748C531.004 408.012 530.23 408.144 529.354 408.144ZM541.789 398.172C542.557 398.172 543.241 398.328 543.841 398.64C544.453 398.94 544.933 399.408 545.281 400.044C545.629 400.668 545.803 401.472 545.803 402.456V408H542.995V402.888C542.995 402.108 542.821 401.532 542.473 401.16C542.137 400.788 541.657 400.602 541.033 400.602C540.589 400.602 540.187 400.698 539.827 400.89C539.479 401.07 539.203 401.352 538.999 401.736C538.807 402.12 538.711 402.612 538.711 403.212V408H535.903V398.316H538.585V400.998L538.081 400.188C538.429 399.54 538.927 399.042 539.575 398.694C540.223 398.346 540.961 398.172 541.789 398.172ZM552.309 408.144C551.169 408.144 550.281 407.856 549.645 407.28C549.009 406.692 548.691 405.822 548.691 404.67V396.174H551.499V404.634C551.499 405.042 551.607 405.36 551.823 405.588C552.039 405.804 552.333 405.912 552.705 405.912C553.149 405.912 553.527 405.792 553.839 405.552L554.595 407.532C554.307 407.736 553.959 407.892 553.551 408C553.155 408.096 552.741 408.144 552.309 408.144ZM547.197 400.692V398.532H553.911V400.692H547.197ZM560.48 408.144C559.448 408.144 558.53 407.928 557.726 407.496C556.934 407.064 556.304 406.476 555.836 405.732C555.38 404.976 555.152 404.118 555.152 403.158C555.152 402.186 555.38 401.328 555.836 400.584C556.304 399.828 556.934 399.24 557.726 398.82C558.53 398.388 559.448 398.172 560.48 398.172C561.5 398.172 562.412 398.388 563.216 398.82C564.02 399.24 564.65 399.822 565.106 400.566C565.562 401.31 565.79 402.174 565.79 403.158C565.79 404.118 565.562 404.976 565.106 405.732C564.65 406.476 564.02 407.064 563.216 407.496C562.412 407.928 561.5 408.144 560.48 408.144ZM560.48 405.84C560.948 405.84 561.368 405.732 561.74 405.516C562.112 405.3 562.406 404.994 562.622 404.598C562.838 404.19 562.946 403.71 562.946 403.158C562.946 402.594 562.838 402.114 562.622 401.718C562.406 401.322 562.112 401.016 561.74 400.8C561.368 400.584 560.948 400.476 560.48 400.476C560.012 400.476 559.592 400.584 559.22 400.8C558.848 401.016 558.548 401.322 558.32 401.718C558.104 402.114 557.996 402.594 557.996 403.158C557.996 403.71 558.104 404.19 558.32 404.598C558.548 404.994 558.848 405.3 559.22 405.516C559.592 405.732 560.012 405.84 560.48 405.84ZM570.925 408.144C570.097 408.144 569.299 408.048 568.531 407.856C567.775 407.652 567.175 407.4 566.731 407.1L567.667 405.084C568.111 405.36 568.633 405.588 569.233 405.768C569.845 405.936 570.445 406.02 571.033 406.02C571.681 406.02 572.137 405.942 572.401 405.786C572.677 405.63 572.815 405.414 572.815 405.138C572.815 404.91 572.707 404.742 572.491 404.634C572.287 404.514 572.011 404.424 571.663 404.364C571.315 404.304 570.931 404.244 570.511 404.184C570.103 404.124 569.689 404.046 569.269 403.95C568.849 403.842 568.465 403.686 568.117 403.482C567.769 403.278 567.487 403.002 567.271 402.654C567.067 402.306 566.965 401.856 566.965 401.304C566.965 400.692 567.139 400.152 567.487 399.684C567.847 399.216 568.363 398.85 569.035 398.586C569.707 398.31 570.511 398.172 571.447 398.172C572.107 398.172 572.779 398.244 573.463 398.388C574.147 398.532 574.717 398.742 575.173 399.018L574.237 401.016C573.769 400.74 573.295 400.554 572.815 400.458C572.347 400.35 571.891 400.296 571.447 400.296C570.823 400.296 570.367 400.38 570.079 400.548C569.791 400.716 569.647 400.932 569.647 401.196C569.647 401.436 569.749 401.616 569.953 401.736C570.169 401.856 570.451 401.952 570.799 402.024C571.147 402.096 571.525 402.162 571.933 402.222C572.353 402.27 572.773 402.348 573.193 402.456C573.613 402.564 573.991 402.72 574.327 402.924C574.675 403.116 574.957 403.386 575.173 403.734C575.389 404.07 575.497 404.514 575.497 405.066C575.497 405.666 575.317 406.2 574.957 406.668C574.597 407.124 574.075 407.484 573.391 407.748C572.719 408.012 571.897 408.144 570.925 408.144ZM587.133 408.144C586.029 408.144 585.057 407.928 584.217 407.496C583.389 407.064 582.747 406.476 582.291 405.732C581.835 404.976 581.607 404.118 581.607 403.158C581.607 402.186 581.829 401.328 582.273 400.584C582.729 399.828 583.347 399.24 584.127 398.82C584.907 398.388 585.789 398.172 586.773 398.172C587.721 398.172 588.573 398.376 589.329 398.784C590.097 399.18 590.703 399.756 591.147 400.512C591.591 401.256 591.813 402.15 591.813 403.194C591.813 403.302 591.807 403.428 591.795 403.572C591.783 403.704 591.771 403.83 591.759 403.95H583.893V402.312H590.283L589.203 402.798C589.203 402.294 589.101 401.856 588.897 401.484C588.693 401.112 588.411 400.824 588.051 400.62C587.691 400.404 587.271 400.296 586.791 400.296C586.311 400.296 585.885 400.404 585.513 400.62C585.153 400.824 584.871 401.118 584.667 401.502C584.463 401.874 584.361 402.318 584.361 402.834V403.266C584.361 403.794 584.475 404.262 584.703 404.67C584.943 405.066 585.273 405.372 585.693 405.588C586.125 405.792 586.629 405.894 587.205 405.894C587.721 405.894 588.171 405.816 588.555 405.66C588.951 405.504 589.311 405.27 589.635 404.958L591.129 406.578C590.685 407.082 590.127 407.472 589.455 407.748C588.783 408.012 588.009 408.144 587.133 408.144ZM606.085 398.172C606.853 398.172 607.531 398.328 608.119 398.64C608.719 398.94 609.187 399.408 609.523 400.044C609.871 400.668 610.045 401.472 610.045 402.456V408H607.237V402.888C607.237 402.108 607.075 401.532 606.751 401.16C606.427 400.788 605.971 400.602 605.383 400.602C604.975 400.602 604.609 400.698 604.285 400.89C603.961 401.07 603.709 401.346 603.529 401.718C603.349 402.09 603.259 402.564 603.259 403.14V408H600.451V402.888C600.451 402.108 600.289 401.532 599.965 401.16C599.653 400.788 599.203 400.602 598.615 400.602C598.207 400.602 597.841 400.698 597.517 400.89C597.193 401.07 596.941 401.346 596.761 401.718C596.581 402.09 596.491 402.564 596.491 403.14V408H593.683V398.316H596.365V400.962L595.861 400.188C596.197 399.528 596.671 399.03 597.283 398.694C597.907 398.346 598.615 398.172 599.407 398.172C600.295 398.172 601.069 398.4 601.729 398.856C602.401 399.3 602.845 399.984 603.061 400.908L602.071 400.638C602.395 399.882 602.911 399.282 603.619 398.838C604.339 398.394 605.161 398.172 606.085 398.172ZM455.02 430.144C454.204 430.144 453.49 429.964 452.878 429.604C452.266 429.244 451.786 428.698 451.438 427.966C451.102 427.222 450.934 426.286 450.934 425.158C450.934 424.018 451.096 423.082 451.42 422.35C451.744 421.618 452.212 421.072 452.824 420.712C453.436 420.352 454.168 420.172 455.02 420.172C455.932 420.172 456.748 420.382 457.468 420.802C458.2 421.21 458.776 421.786 459.196 422.53C459.628 423.274 459.844 424.15 459.844 425.158C459.844 426.178 459.628 427.06 459.196 427.804C458.776 428.548 458.2 429.124 457.468 429.532C456.748 429.94 455.932 430.144 455.02 430.144ZM449.296 433.492V420.316H451.978V422.296L451.924 425.176L452.104 428.038V433.492H449.296ZM454.534 427.84C455.002 427.84 455.416 427.732 455.776 427.516C456.148 427.3 456.442 426.994 456.658 426.598C456.886 426.19 457 425.71 457 425.158C457 424.594 456.886 424.114 456.658 423.718C456.442 423.322 456.148 423.016 455.776 422.8C455.416 422.584 455.002 422.476 454.534 422.476C454.066 422.476 453.646 422.584 453.274 422.8C452.902 423.016 452.608 423.322 452.392 423.718C452.176 424.114 452.068 424.594 452.068 425.158C452.068 425.71 452.176 426.19 452.392 426.598C452.608 426.994 452.902 427.3 453.274 427.516C453.646 427.732 454.066 427.84 454.534 427.84ZM461.724 430V420.316H464.406V423.052L464.028 422.26C464.316 421.576 464.778 421.06 465.414 420.712C466.05 420.352 466.824 420.172 467.736 420.172V422.764C467.616 422.752 467.508 422.746 467.412 422.746C467.316 422.734 467.214 422.728 467.106 422.728C466.338 422.728 465.714 422.95 465.234 423.394C464.766 423.826 464.532 424.504 464.532 425.428V430H461.724ZM469.423 430V420.316H472.231V430H469.423ZM470.827 418.966C470.311 418.966 469.891 418.816 469.567 418.516C469.243 418.216 469.081 417.844 469.081 417.4C469.081 416.956 469.243 416.584 469.567 416.284C469.891 415.984 470.311 415.834 470.827 415.834C471.343 415.834 471.763 415.978 472.087 416.266C472.411 416.542 472.573 416.902 472.573 417.346C472.573 417.814 472.411 418.204 472.087 418.516C471.775 418.816 471.355 418.966 470.827 418.966ZM487.239 420.172C488.007 420.172 488.685 420.328 489.273 420.64C489.873 420.94 490.341 421.408 490.677 422.044C491.025 422.668 491.199 423.472 491.199 424.456V430H488.391V424.888C488.391 424.108 488.229 423.532 487.905 423.16C487.581 422.788 487.125 422.602 486.537 422.602C486.129 422.602 485.763 422.698 485.439 422.89C485.115 423.07 484.863 423.346 484.683 423.718C484.503 424.09 484.413 424.564 484.413 425.14V430H481.605V424.888C481.605 424.108 481.443 423.532 481.119 423.16C480.807 422.788 480.357 422.602 479.769 422.602C479.361 422.602 478.995 422.698 478.671 422.89C478.347 423.07 478.095 423.346 477.915 423.718C477.735 424.09 477.645 424.564 477.645 425.14V430H474.837V420.316H477.519V422.962L477.015 422.188C477.351 421.528 477.825 421.03 478.437 420.694C479.061 420.346 479.769 420.172 480.561 420.172C481.449 420.172 482.223 420.4 482.883 420.856C483.555 421.3 483.999 421.984 484.215 422.908L483.225 422.638C483.549 421.882 484.065 421.282 484.773 420.838C485.493 420.394 486.315 420.172 487.239 420.172ZM498.592 430.144C497.488 430.144 496.516 429.928 495.676 429.496C494.848 429.064 494.206 428.476 493.75 427.732C493.294 426.976 493.066 426.118 493.066 425.158C493.066 424.186 493.288 423.328 493.732 422.584C494.188 421.828 494.806 421.24 495.586 420.82C496.366 420.388 497.248 420.172 498.232 420.172C499.18 420.172 500.032 420.376 500.788 420.784C501.556 421.18 502.162 421.756 502.606 422.512C503.05 423.256 503.272 424.15 503.272 425.194C503.272 425.302 503.266 425.428 503.254 425.572C503.242 425.704 503.23 425.83 503.218 425.95H495.352V424.312H501.742L500.662 424.798C500.662 424.294 500.56 423.856 500.356 423.484C500.152 423.112 499.87 422.824 499.51 422.62C499.15 422.404 498.73 422.296 498.25 422.296C497.77 422.296 497.344 422.404 496.972 422.62C496.612 422.824 496.33 423.118 496.126 423.502C495.922 423.874 495.82 424.318 495.82 424.834V425.266C495.82 425.794 495.934 426.262 496.162 426.67C496.402 427.066 496.732 427.372 497.152 427.588C497.584 427.792 498.088 427.894 498.664 427.894C499.18 427.894 499.63 427.816 500.014 427.66C500.41 427.504 500.77 427.27 501.094 426.958L502.588 428.578C502.144 429.082 501.586 429.472 500.914 429.748C500.242 430.012 499.468 430.144 498.592 430.144ZM505.142 430V420.316H507.95V430H505.142ZM506.546 418.966C506.03 418.966 505.61 418.816 505.286 418.516C504.962 418.216 504.8 417.844 504.8 417.4C504.8 416.956 504.962 416.584 505.286 416.284C505.61 415.984 506.03 415.834 506.546 415.834C507.062 415.834 507.482 415.978 507.806 416.266C508.13 416.542 508.292 416.902 508.292 417.346C508.292 417.814 508.13 418.204 507.806 418.516C507.494 418.816 507.074 418.966 506.546 418.966ZM510.556 430V420.316H513.238V423.052L512.86 422.26C513.148 421.576 513.61 421.06 514.246 420.712C514.882 420.352 515.656 420.172 516.568 420.172V422.764C516.448 422.752 516.34 422.746 516.244 422.746C516.148 422.734 516.046 422.728 515.938 422.728C515.17 422.728 514.546 422.95 514.066 423.394C513.598 423.826 513.364 424.504 513.364 425.428V430H510.556ZM523.545 430V428.11L523.365 427.696V424.312C523.365 423.712 523.179 423.244 522.807 422.908C522.447 422.572 521.889 422.404 521.133 422.404C520.617 422.404 520.107 422.488 519.603 422.656C519.111 422.812 518.691 423.028 518.343 423.304L517.335 421.342C517.863 420.97 518.499 420.682 519.243 420.478C519.987 420.274 520.743 420.172 521.511 420.172C522.987 420.172 524.133 420.52 524.949 421.216C525.765 421.912 526.173 422.998 526.173 424.474V430H523.545ZM520.593 430.144C519.837 430.144 519.189 430.018 518.649 429.766C518.109 429.502 517.695 429.148 517.407 428.704C517.119 428.26 516.975 427.762 516.975 427.21C516.975 426.634 517.113 426.13 517.389 425.698C517.677 425.266 518.127 424.93 518.739 424.69C519.351 424.438 520.149 424.312 521.133 424.312H523.707V425.95H521.439C520.779 425.95 520.323 426.058 520.071 426.274C519.831 426.49 519.711 426.76 519.711 427.084C519.711 427.444 519.849 427.732 520.125 427.948C520.413 428.152 520.803 428.254 521.295 428.254C521.763 428.254 522.183 428.146 522.555 427.93C522.927 427.702 523.197 427.372 523.365 426.94L523.797 428.236C523.593 428.86 523.221 429.334 522.681 429.658C522.141 429.982 521.445 430.144 520.593 430.144ZM546.214 420.172C546.982 420.172 547.66 420.328 548.248 420.64C548.848 420.94 549.316 421.408 549.652 422.044C550 422.668 550.174 423.472 550.174 424.456V430H547.366V424.888C547.366 424.108 547.204 423.532 546.88 423.16C546.556 422.788 546.1 422.602 545.512 422.602C545.104 422.602 544.738 422.698 544.414 422.89C544.09 423.07 543.838 423.346 543.658 423.718C543.478 424.09 543.388 424.564 543.388 425.14V430H540.58V424.888C540.58 424.108 540.418 423.532 540.094 423.16C539.782 422.788 539.332 422.602 538.744 422.602C538.336 422.602 537.97 422.698 537.646 422.89C537.322 423.07 537.07 423.346 536.89 423.718C536.71 424.09 536.62 424.564 536.62 425.14V430H533.812V420.316H536.494V422.962L535.99 422.188C536.326 421.528 536.8 421.03 537.412 420.694C538.036 420.346 538.744 420.172 539.536 420.172C540.424 420.172 541.198 420.4 541.858 420.856C542.53 421.3 542.974 421.984 543.19 422.908L542.2 422.638C542.524 421.882 543.04 421.282 543.748 420.838C544.468 420.394 545.29 420.172 546.214 420.172ZM558.631 430V428.11L558.451 427.696V424.312C558.451 423.712 558.265 423.244 557.893 422.908C557.533 422.572 556.975 422.404 556.219 422.404C555.703 422.404 555.193 422.488 554.689 422.656C554.197 422.812 553.777 423.028 553.429 423.304L552.421 421.342C552.949 420.97 553.585 420.682 554.329 420.478C555.073 420.274 555.829 420.172 556.597 420.172C558.073 420.172 559.219 420.52 560.035 421.216C560.851 421.912 561.259 422.998 561.259 424.474V430H558.631ZM555.679 430.144C554.923 430.144 554.275 430.018 553.735 429.766C553.195 429.502 552.781 429.148 552.493 428.704C552.205 428.26 552.061 427.762 552.061 427.21C552.061 426.634 552.199 426.13 552.475 425.698C552.763 425.266 553.213 424.93 553.825 424.69C554.437 424.438 555.235 424.312 556.219 424.312H558.793V425.95H556.525C555.865 425.95 555.409 426.058 555.157 426.274C554.917 426.49 554.797 426.76 554.797 427.084C554.797 427.444 554.935 427.732 555.211 427.948C555.499 428.152 555.889 428.254 556.381 428.254C556.849 428.254 557.269 428.146 557.641 427.93C558.013 427.702 558.283 427.372 558.451 426.94L558.883 428.236C558.679 428.86 558.307 429.334 557.767 429.658C557.227 429.982 556.531 430.144 555.679 430.144ZM558.235 419.128C557.923 419.128 557.647 419.074 557.407 418.966C557.167 418.846 556.951 418.714 556.759 418.57C556.567 418.414 556.387 418.282 556.219 418.174C556.051 418.054 555.883 417.994 555.715 417.994C555.475 417.994 555.277 418.084 555.121 418.264C554.965 418.432 554.875 418.678 554.851 419.002H553.429C553.453 418.198 553.651 417.562 554.023 417.094C554.395 416.614 554.899 416.374 555.535 416.374C555.847 416.374 556.123 416.434 556.363 416.554C556.603 416.662 556.819 416.794 557.011 416.95C557.215 417.106 557.401 417.244 557.569 417.364C557.737 417.472 557.899 417.526 558.055 417.526C558.307 417.526 558.511 417.442 558.667 417.274C558.823 417.094 558.907 416.854 558.919 416.554H560.341C560.329 417.322 560.131 417.946 559.747 418.426C559.375 418.894 558.871 419.128 558.235 419.128ZM568.478 430.144C567.446 430.144 566.528 429.928 565.724 429.496C564.932 429.064 564.302 428.476 563.834 427.732C563.378 426.976 563.15 426.118 563.15 425.158C563.15 424.186 563.378 423.328 563.834 422.584C564.302 421.828 564.932 421.24 565.724 420.82C566.528 420.388 567.446 420.172 568.478 420.172C569.498 420.172 570.41 420.388 571.214 420.82C572.018 421.24 572.648 421.822 573.104 422.566C573.56 423.31 573.788 424.174 573.788 425.158C573.788 426.118 573.56 426.976 573.104 427.732C572.648 428.476 572.018 429.064 571.214 429.496C570.41 429.928 569.498 430.144 568.478 430.144ZM568.478 427.84C568.946 427.84 569.366 427.732 569.738 427.516C570.11 427.3 570.404 426.994 570.62 426.598C570.836 426.19 570.944 425.71 570.944 425.158C570.944 424.594 570.836 424.114 570.62 423.718C570.404 423.322 570.11 423.016 569.738 422.8C569.366 422.584 568.946 422.476 568.478 422.476C568.01 422.476 567.59 422.584 567.218 422.8C566.846 423.016 566.546 423.322 566.318 423.718C566.102 424.114 565.994 424.594 565.994 425.158C565.994 425.71 566.102 426.19 566.318 426.598C566.546 426.994 566.846 427.3 567.218 427.516C567.59 427.732 568.01 427.84 568.478 427.84Z" fill="#181818"/>
</g>
<defs>
<filter id="filter0_d_265_749" x="71" y="182" width="240" height="245" filterUnits="userSpaceOnUse" color-interpolation-filters="sRGB">
<feFlood flood-opacity="0" result="BackgroundImageFix"/>
<feColorMatrix in="SourceAlpha" type="matrix" values="0 0 0 0 0 0 0 0 0 0 0 0 0 0 0 0 0 0 127 0" result="hardAlpha"/>
<feOffset dx="-6" dy="6"/>
<feGaussianBlur stdDeviation="10"/>
<feComposite in2="hardAlpha" operator="out"/>
<feColorMatrix type="matrix" values="0 0 0 0 0 0 0 0 0 0 0 0 0 0 0 0 0 0 0.08 0"/>
<feBlend mode="normal" in2="BackgroundImageFix" result="effect1_dropShadow_265_749"/>
<feBlend mode="normal" in="SourceGraphic" in2="effect1_dropShadow_265_749" result="shape"/>
</filter>
<filter id="filter1_d_265_749" x="238" y="286" width="260" height="245" filterUnits="userSpaceOnUse" color-interpolation-filters="sRGB">
<feFlood flood-opacity="0" result="BackgroundImageFix"/>
<feColorMatrix in="SourceAlpha" type="matrix" values="0 0 0 0 0 0 0 0 0 0 0 0 0 0 0 0 0 0 127 0" result="hardAlpha"/>
<feOffset dx="-6" dy="6"/>
<feGaussianBlur stdDeviation="10"/>
<feComposite in2="hardAlpha" operator="out"/>
<feColorMatrix type="matrix" values="0 0 0 0 0 0 0 0 0 0 0 0 0 0 0 0 0 0 0.08 0"/>
<feBlend mode="normal" in2="BackgroundImageFix" result="effect1_dropShadow_265_749"/>
<feBlend mode="normal" in="SourceGraphic" in2="effect1_dropShadow_265_749" result="shape"/>
</filter>
<filter id="filter2_d_265_749" x="402" y="236" width="259" height="245" filterUnits="userSpaceOnUse" color-interpolation-filters="sRGB">
<feFlood flood-opacity="0" result="BackgroundImageFix"/>
<feColorMatrix in="SourceAlpha" type="matrix" values="0 0 0 0 0 0 0 0 0 0 0 0 0 0 0 0 0 0 127 0" result="hardAlpha"/>
<feOffset dx="-6" dy="6"/>
<feGaussianBlur stdDeviation="10"/>
<feComposite in2="hardAlpha" operator="out"/>
<feColorMatrix type="matrix" values="0 0 0 0 0 0 0 0 0 0 0 0 0 0 0 0 0 0 0.08 0"/>
<feBlend mode="normal" in2="BackgroundImageFix" result="effect1_dropShadow_265_749"/>
<feBlend mode="normal" in="SourceGraphic" in2="effect1_dropShadow_265_749" result="shape"/>
</filter>
<linearGradient id="paint0_linear_265_749" x1="78.5" y1="218.5" x2="218.5" y2="97.4999" gradientUnits="userSpaceOnUse">
<stop stop-color="#984DEF"/>
<stop offset="1" stop-color="#B779FF"/>
</linearGradient>
<linearGradient id="paint1_linear_265_749" x1="601.5" y1="422" x2="487" y2="561" gradientUnits="userSpaceOnUse">
<stop stop-color="#FF79AC"/>
<stop offset="1" stop-color="#EF4D4F"/>
</linearGradient>
<linearGradient id="paint2_linear_265_749" x1="0" y1="1.5" x2="88" y2="1.5" gradientUnits="userSpaceOnUse">
<stop stop-color="#B879FF"/>
<stop offset="1" stop-color="#984DEF"/>
</linearGradient>
<linearGradient id="paint3_linear_265_749" x1="173" y1="278" x2="117" y2="278" gradientUnits="userSpaceOnUse">
<stop stop-color="#B779FF"/>
<stop offset="1" stop-color="#984DEF"/>
</linearGradient>
<linearGradient id="paint4_linear_265_749" x1="0" y1="1.5" x2="88" y2="1.5" gradientUnits="userSpaceOnUse">
<stop stop-color="#78E7FE"/>
<stop offset="1" stop-color="#4DEFBC"/>
</linearGradient>
<linearGradient id="paint5_linear_265_749" x1="340" y1="382" x2="284" y2="382" gradientUnits="userSpaceOnUse">
<stop stop-color="#79E6FF"/>
<stop offset="1" stop-color="#4DEFBB"/>
</linearGradient>
<linearGradient id="paint6_linear_265_749" x1="0" y1="1.5" x2="88" y2="1.5" gradientUnits="userSpaceOnUse">
<stop stop-color="#FF78AA"/>
<stop offset="1" stop-color="#EF4E52"/>
</linearGradient>
<linearGradient id="paint7_linear_265_749" x1="504" y1="332" x2="448" y2="332" gradientUnits="userSpaceOnUse">
<stop stop-color="#FF79AC"/>
<stop offset="1" stop-color="#EF4D4F"/>
</linearGradient>
</defs>
</svg>
